G04 (created by PCBNEW-RS274X (2010-04-21 BZR 23xx)-stable) date Sun Nov 13 22:07:47 2011*
G01*
G70*
G90*
%MOIN*%
G04 Gerber Fmt 3.4, Leading zero omitted, Abs format*
%FSLAX34Y34*%
G04 APERTURE LIST*
%ADD10C,0.006000*%
%ADD11C,0.015000*%
%ADD12C,0.070000*%
%ADD13R,0.070000X0.070000*%
%ADD14R,0.060000X0.060000*%
%ADD15C,0.060000*%
%ADD16C,0.055000*%
%ADD17R,0.055000X0.055000*%
%ADD18O,0.060000X0.080000*%
%ADD19C,0.120000*%
%ADD20C,0.080000*%
%ADD21C,0.050000*%
%ADD22C,0.035000*%
%ADD23C,0.008000*%
%ADD24C,0.020000*%
G04 APERTURE END LIST*
G54D10*
G54D11*
X74250Y-58000D02*
X74250Y-20000D01*
X40000Y-58000D02*
X74250Y-58000D01*
X40000Y-54000D02*
X40000Y-58000D01*
X40000Y-20000D02*
X42250Y-20000D01*
X40000Y-54000D02*
X40000Y-20000D01*
X42250Y-20000D02*
X74250Y-20000D01*
G54D12*
X48500Y-30250D03*
G54D13*
X48500Y-34250D03*
G54D14*
X57000Y-36750D03*
G54D15*
X57000Y-35750D03*
G54D14*
X53000Y-36750D03*
G54D15*
X53000Y-35750D03*
G54D14*
X51000Y-36750D03*
G54D15*
X51000Y-35750D03*
G54D14*
X55000Y-36750D03*
G54D15*
X55000Y-35750D03*
G54D14*
X65000Y-35750D03*
G54D15*
X65000Y-36750D03*
X64000Y-35750D03*
X64000Y-36750D03*
X63000Y-35750D03*
X63000Y-36750D03*
X62000Y-35750D03*
X62000Y-36750D03*
G54D16*
X55000Y-29250D03*
X55000Y-26250D03*
X48000Y-27500D03*
X48000Y-24500D03*
X58000Y-29250D03*
X58000Y-26250D03*
X59000Y-29250D03*
X59000Y-26250D03*
X60000Y-29250D03*
X60000Y-26250D03*
X61000Y-29250D03*
X61000Y-26250D03*
G54D17*
X54000Y-31750D03*
G54D16*
X55000Y-31750D03*
X55000Y-30750D03*
G54D17*
X47500Y-29250D03*
G54D16*
X46500Y-29250D03*
X46500Y-30250D03*
X52250Y-31750D03*
X51250Y-31750D03*
G54D14*
X45500Y-36250D03*
G54D15*
X46500Y-36250D03*
G54D13*
X50750Y-39750D03*
G54D12*
X50750Y-41750D03*
G54D14*
X70500Y-41250D03*
G54D15*
X69500Y-41250D03*
X70500Y-40250D03*
X69500Y-40250D03*
X70500Y-39250D03*
X69500Y-39250D03*
G54D14*
X68000Y-53750D03*
G54D15*
X68000Y-52750D03*
X69000Y-53750D03*
X69000Y-52750D03*
X70000Y-53750D03*
X70000Y-52750D03*
G54D18*
X68000Y-55750D03*
X69000Y-55750D03*
X70000Y-55750D03*
X68000Y-50750D03*
X70000Y-50750D03*
G54D19*
X72500Y-53250D03*
X65500Y-53250D03*
G54D20*
X45000Y-39750D03*
X45000Y-41750D03*
G54D10*
G36*
X46600Y-42150D02*
X46600Y-41350D01*
X47400Y-41350D01*
X47400Y-42150D01*
X46600Y-42150D01*
X46600Y-42150D01*
G37*
G54D20*
X47000Y-39750D03*
G54D15*
X65000Y-23250D03*
X64000Y-23250D03*
X63000Y-23250D03*
X62000Y-23250D03*
X61000Y-23250D03*
X60000Y-23250D03*
X59000Y-23250D03*
X58000Y-23250D03*
X56400Y-23250D03*
X55400Y-23250D03*
X54400Y-23250D03*
X53400Y-23250D03*
X52400Y-23250D03*
X51400Y-23250D03*
X50400Y-23250D03*
X49400Y-23250D03*
X53000Y-42250D03*
X54000Y-42250D03*
X55000Y-42250D03*
X56000Y-42250D03*
X57000Y-42250D03*
X58000Y-42250D03*
X60000Y-42250D03*
X61000Y-42250D03*
X62000Y-42250D03*
X63000Y-42250D03*
X64000Y-42250D03*
X65000Y-42250D03*
G54D19*
X46000Y-23250D03*
X66000Y-40250D03*
X66000Y-29250D03*
G54D14*
X64000Y-40250D03*
G54D15*
X63000Y-40250D03*
X62000Y-40250D03*
X61000Y-40250D03*
X60000Y-40250D03*
X59000Y-40250D03*
X58000Y-40250D03*
X57000Y-40250D03*
G54D21*
X68750Y-23250D03*
X69750Y-24250D03*
X68750Y-25250D03*
G54D15*
X43500Y-21250D03*
X44500Y-21250D03*
X45500Y-21250D03*
X46500Y-21250D03*
X47500Y-21250D03*
X48500Y-21250D03*
X49500Y-21250D03*
X50500Y-21250D03*
X51500Y-21250D03*
X52500Y-21250D03*
X53500Y-21250D03*
X54500Y-21250D03*
X55500Y-21250D03*
X56500Y-21250D03*
X57500Y-21250D03*
X58500Y-21250D03*
G54D19*
X41350Y-21250D03*
X70900Y-21250D03*
X70900Y-33450D03*
X41350Y-33450D03*
G54D14*
X59500Y-35750D03*
G54D15*
X59500Y-36750D03*
G54D16*
X41000Y-48000D03*
X42000Y-48000D03*
X52000Y-46750D03*
X52000Y-48750D03*
X44500Y-52500D03*
X44500Y-54500D03*
G54D14*
X57250Y-51250D03*
G54D15*
X57250Y-54250D03*
G54D17*
X46000Y-52250D03*
G54D16*
X46000Y-55250D03*
G54D17*
X51000Y-55250D03*
G54D16*
X51000Y-54250D03*
X51000Y-53250D03*
X51000Y-52250D03*
X51000Y-51250D03*
X51000Y-50250D03*
X51000Y-49250D03*
X51000Y-48250D03*
X48000Y-48250D03*
X48000Y-49250D03*
X48000Y-50250D03*
X48000Y-51250D03*
X48000Y-52250D03*
X48000Y-53250D03*
X48000Y-54250D03*
X48000Y-55250D03*
G54D17*
X46000Y-51000D03*
G54D16*
X46000Y-50000D03*
X46000Y-49000D03*
X46000Y-48000D03*
X43000Y-48000D03*
X43000Y-49000D03*
X43000Y-50000D03*
X43000Y-51000D03*
G54D14*
X58750Y-51250D03*
G54D15*
X58750Y-52250D03*
G54D14*
X53500Y-48250D03*
G54D15*
X54500Y-48250D03*
X53500Y-49250D03*
X54500Y-49250D03*
X53500Y-50250D03*
X54500Y-50250D03*
X53500Y-51250D03*
X54500Y-51250D03*
X53500Y-52250D03*
X54500Y-52250D03*
X53500Y-53250D03*
X54500Y-53250D03*
X53500Y-54250D03*
X54500Y-54250D03*
X53500Y-55250D03*
X54500Y-55250D03*
G54D21*
X42000Y-55250D03*
X41000Y-54250D03*
X42000Y-53250D03*
G54D16*
X47000Y-52250D03*
X47000Y-55250D03*
X56250Y-56750D03*
X53250Y-56750D03*
X56250Y-51250D03*
X56250Y-54250D03*
X42000Y-49000D03*
X42000Y-52000D03*
X41000Y-49000D03*
X41000Y-52000D03*
G54D17*
X57500Y-56000D03*
G54D16*
X58500Y-56000D03*
X58500Y-55000D03*
G54D14*
X57750Y-49750D03*
G54D15*
X58750Y-49750D03*
G54D14*
X56250Y-48250D03*
G54D15*
X56250Y-49250D03*
X56250Y-50250D03*
G54D19*
X58000Y-47500D03*
X44750Y-56500D03*
G54D16*
X48000Y-56250D03*
X47000Y-56250D03*
X45000Y-46750D03*
X44000Y-46750D03*
G54D22*
X60500Y-38250D03*
X61500Y-33750D03*
X52500Y-33750D03*
X65750Y-34500D03*
X59200Y-21550D03*
X59900Y-21550D03*
X49500Y-22250D03*
X51750Y-53750D03*
X50000Y-53750D03*
X63500Y-27250D03*
X68750Y-27250D03*
X57750Y-27250D03*
X52000Y-27250D03*
X56500Y-26500D03*
X55000Y-24250D03*
X56400Y-23250D03*
X60000Y-22150D03*
X63250Y-39250D03*
X56500Y-39250D03*
G54D23*
X60000Y-42250D02*
X60000Y-41750D01*
X60500Y-39000D02*
X60500Y-38250D01*
X59500Y-40000D02*
X60500Y-39000D01*
X59500Y-41250D02*
X59500Y-40000D01*
X60000Y-41750D02*
X59500Y-41250D01*
X61000Y-42250D02*
X61000Y-41750D01*
X63750Y-36750D02*
X64000Y-36750D01*
X60500Y-40000D02*
X63750Y-36750D01*
X60500Y-41250D02*
X60500Y-40000D01*
X61000Y-41750D02*
X60500Y-41250D01*
G54D24*
X46500Y-36250D02*
X46500Y-39250D01*
X46500Y-39250D02*
X47000Y-39750D01*
X45500Y-36250D02*
X45500Y-38850D01*
X45800Y-40950D02*
X45000Y-41750D01*
X45800Y-39150D02*
X45800Y-40950D01*
X45500Y-38850D02*
X45800Y-39150D01*
G54D23*
X51250Y-31750D02*
X51250Y-30750D01*
X49500Y-23250D02*
X49400Y-23250D01*
X52500Y-26250D02*
X49500Y-23250D01*
X52500Y-29500D02*
X52500Y-26250D01*
X51250Y-30750D02*
X52500Y-29500D01*
X51250Y-31750D02*
X51250Y-32500D01*
X61750Y-36750D02*
X62000Y-36750D01*
X61500Y-36500D02*
X61750Y-36750D01*
X61500Y-33750D02*
X61500Y-36500D01*
X51250Y-32500D02*
X52500Y-33750D01*
X64000Y-35750D02*
X65000Y-34750D01*
X65000Y-34750D02*
X65000Y-23250D01*
X64000Y-34750D02*
X63000Y-35750D01*
X64000Y-23250D02*
X64000Y-34750D01*
X62000Y-35750D02*
X62000Y-29000D01*
X52900Y-22750D02*
X52400Y-23250D01*
X57000Y-22750D02*
X52900Y-22750D01*
X57250Y-23000D02*
X57000Y-22750D01*
X57250Y-28250D02*
X57250Y-23000D01*
X57500Y-28500D02*
X57250Y-28250D01*
X61500Y-28500D02*
X57500Y-28500D01*
X62000Y-29000D02*
X61500Y-28500D01*
X69500Y-41250D02*
X66500Y-38250D01*
X66500Y-35250D02*
X65750Y-34500D01*
X66500Y-38250D02*
X66500Y-35250D01*
X70500Y-39250D02*
X70500Y-38750D01*
X63750Y-22500D02*
X63000Y-23250D01*
X66000Y-22500D02*
X63750Y-22500D01*
X67750Y-24250D02*
X66000Y-22500D01*
X67750Y-36000D02*
X67750Y-24250D01*
X70500Y-38750D02*
X67750Y-36000D01*
X62000Y-23250D02*
X62000Y-23000D01*
X71500Y-40250D02*
X70500Y-41250D01*
X71500Y-39000D02*
X71500Y-40250D01*
X68250Y-35750D02*
X71500Y-39000D01*
X68250Y-24000D02*
X68250Y-35750D01*
X66250Y-22000D02*
X68250Y-24000D01*
X63000Y-22000D02*
X66250Y-22000D01*
X62000Y-23000D02*
X63000Y-22000D01*
G54D24*
X57250Y-54250D02*
X57250Y-53750D01*
X57250Y-53750D02*
X58750Y-52250D01*
X56250Y-54250D02*
X55500Y-53500D01*
X56000Y-50250D02*
X56250Y-50250D01*
X55500Y-50750D02*
X56000Y-50250D01*
X55500Y-53500D02*
X55500Y-50750D01*
X56250Y-54250D02*
X57250Y-54250D01*
X58500Y-55000D02*
X58750Y-54750D01*
X58750Y-54750D02*
X58750Y-52250D01*
X53000Y-35750D02*
X51000Y-35750D01*
X51000Y-35750D02*
X50000Y-35750D01*
X50000Y-35750D02*
X48500Y-34250D01*
X46500Y-30250D02*
X47000Y-30250D01*
X47000Y-30250D02*
X48500Y-30250D01*
X48500Y-30250D02*
X48500Y-32000D01*
X53750Y-36000D02*
X53000Y-36750D01*
X53750Y-35500D02*
X53750Y-36000D01*
X53250Y-35000D02*
X53750Y-35500D01*
X51500Y-35000D02*
X53250Y-35000D01*
X48500Y-32000D02*
X51500Y-35000D01*
X44125Y-49875D02*
X45000Y-49000D01*
X45000Y-49000D02*
X45000Y-46750D01*
X45000Y-46750D02*
X52000Y-46750D01*
X41000Y-49000D02*
X41500Y-49500D01*
X43750Y-49500D02*
X44125Y-49875D01*
X41500Y-49500D02*
X43750Y-49500D01*
X43000Y-51000D02*
X44125Y-49875D01*
X48000Y-56250D02*
X48000Y-55250D01*
X48000Y-55250D02*
X46500Y-53750D01*
X43000Y-52250D02*
X43000Y-51000D01*
X44500Y-53750D02*
X43000Y-52250D01*
X46500Y-53750D02*
X44500Y-53750D01*
X58750Y-51250D02*
X58750Y-49750D01*
X58750Y-49750D02*
X57750Y-48750D01*
X56750Y-48750D02*
X56250Y-48250D01*
X57750Y-48750D02*
X56750Y-48750D01*
X56250Y-48250D02*
X54750Y-46750D01*
X54750Y-46750D02*
X52000Y-46750D01*
X56250Y-51250D02*
X57250Y-51250D01*
X57250Y-51250D02*
X58750Y-51250D01*
X47000Y-41750D02*
X50750Y-41750D01*
X50750Y-41750D02*
X52000Y-43000D01*
X52000Y-43000D02*
X57250Y-43000D01*
X57250Y-43000D02*
X58000Y-42250D01*
G54D23*
X53250Y-56750D02*
X53250Y-56500D01*
X53250Y-56500D02*
X54500Y-55250D01*
X54500Y-55250D02*
X54500Y-53250D01*
X54500Y-53250D02*
X54500Y-52250D01*
X54500Y-52250D02*
X54500Y-51250D01*
X54500Y-51250D02*
X54500Y-50250D01*
X54500Y-50250D02*
X54500Y-49250D01*
X54500Y-49250D02*
X54500Y-48250D01*
X56500Y-21250D02*
X56500Y-21350D01*
X58800Y-21950D02*
X59200Y-21550D01*
X57100Y-21950D02*
X58800Y-21950D01*
X56500Y-21350D02*
X57100Y-21950D01*
X58000Y-23250D02*
X58000Y-26250D01*
X56250Y-56750D02*
X58250Y-56750D01*
X58500Y-56500D02*
X58500Y-56000D01*
X58250Y-56750D02*
X58500Y-56500D01*
X59000Y-22150D02*
X59300Y-22150D01*
X55500Y-21350D02*
X56300Y-22150D01*
X56300Y-22150D02*
X59000Y-22150D01*
X55500Y-21250D02*
X55500Y-21350D01*
X59300Y-22150D02*
X59900Y-21550D01*
X59000Y-23250D02*
X59000Y-26250D01*
X46000Y-48000D02*
X46500Y-47500D01*
X54500Y-47500D02*
X56250Y-49250D01*
X46500Y-47500D02*
X54500Y-47500D01*
X68000Y-50750D02*
X68000Y-52750D01*
X51000Y-55250D02*
X51500Y-55250D01*
X51500Y-55250D02*
X53500Y-53250D01*
X51000Y-54250D02*
X50750Y-54250D01*
X52000Y-55750D02*
X53500Y-54250D01*
X50500Y-55750D02*
X52000Y-55750D01*
X50500Y-54500D02*
X50500Y-55750D01*
X50750Y-54250D02*
X50500Y-54500D01*
X70000Y-50750D02*
X70000Y-52750D01*
X51000Y-53250D02*
X50250Y-54000D01*
X52750Y-56000D02*
X53500Y-55250D01*
X52250Y-56000D02*
X52750Y-56000D01*
X50250Y-56000D02*
X52250Y-56000D01*
X50250Y-55750D02*
X50250Y-56000D01*
X50250Y-54000D02*
X50250Y-55750D01*
X70000Y-53750D02*
X70000Y-55750D01*
X68000Y-53750D02*
X68000Y-55750D01*
X51000Y-50250D02*
X51500Y-50250D01*
X51500Y-50250D02*
X53500Y-48250D01*
X47000Y-52250D02*
X47000Y-51250D01*
X47000Y-51250D02*
X48000Y-50250D01*
X48000Y-50250D02*
X49500Y-48750D01*
X51500Y-48750D02*
X52000Y-48750D01*
X49500Y-48750D02*
X51500Y-48750D01*
X46000Y-52250D02*
X47000Y-52250D01*
X48000Y-51250D02*
X50250Y-51250D01*
X52000Y-50250D02*
X53500Y-50250D01*
X51500Y-50750D02*
X52000Y-50250D01*
X50750Y-50750D02*
X51500Y-50750D01*
X50250Y-51250D02*
X50750Y-50750D01*
X48000Y-52250D02*
X50000Y-52250D01*
X54000Y-49750D02*
X53500Y-49250D01*
X54000Y-50500D02*
X54000Y-49750D01*
X53750Y-50750D02*
X54000Y-50500D01*
X52250Y-50750D02*
X53750Y-50750D01*
X51250Y-51750D02*
X52250Y-50750D01*
X50500Y-51750D02*
X51250Y-51750D01*
X50000Y-52250D02*
X50500Y-51750D01*
X49500Y-22250D02*
X48500Y-21250D01*
X48000Y-53250D02*
X49750Y-53250D01*
X52000Y-52750D02*
X53500Y-51250D01*
X50250Y-52750D02*
X52000Y-52750D01*
X49750Y-53250D02*
X50250Y-52750D01*
X48000Y-54250D02*
X49500Y-54250D01*
X53250Y-52250D02*
X53500Y-52250D01*
X51750Y-53750D02*
X53250Y-52250D01*
X49500Y-54250D02*
X50000Y-53750D01*
X64000Y-42250D02*
X64000Y-41750D01*
X63000Y-40750D02*
X63000Y-40250D01*
X64000Y-41750D02*
X63000Y-40750D01*
X43000Y-49000D02*
X42000Y-49000D01*
X46000Y-50000D02*
X44500Y-51500D01*
X44500Y-51500D02*
X44500Y-52500D01*
X42000Y-55250D02*
X41000Y-54250D01*
X41000Y-54250D02*
X41000Y-52000D01*
X47750Y-25250D02*
X49750Y-27250D01*
X68750Y-27250D02*
X69750Y-26250D01*
X69750Y-24250D02*
X69750Y-26000D01*
X69750Y-26250D02*
X69750Y-26000D01*
X47750Y-25250D02*
X47000Y-24500D01*
X47000Y-24500D02*
X47000Y-22750D01*
X47000Y-22750D02*
X45500Y-21250D01*
X63500Y-27250D02*
X57750Y-27250D01*
X49750Y-27250D02*
X52000Y-27250D01*
X42000Y-53250D02*
X42000Y-52000D01*
X42000Y-52000D02*
X42000Y-51000D01*
X42000Y-51000D02*
X43000Y-50000D01*
X55000Y-29250D02*
X54250Y-30000D01*
X54250Y-31000D02*
X55000Y-31750D01*
X54250Y-30000D02*
X54250Y-31000D01*
X46000Y-49000D02*
X47750Y-49000D01*
X47750Y-49000D02*
X48000Y-49250D01*
X48000Y-27500D02*
X47500Y-27500D01*
X46500Y-28500D02*
X47500Y-27500D01*
X46500Y-28500D02*
X46500Y-29250D01*
X43000Y-48000D02*
X42000Y-48000D01*
X55000Y-30750D02*
X56500Y-29250D01*
X56500Y-29250D02*
X56500Y-26500D01*
X58000Y-29250D02*
X58000Y-39000D01*
X57000Y-40000D02*
X57000Y-40250D01*
X58000Y-39000D02*
X57000Y-40000D01*
X58000Y-40250D02*
X58000Y-40000D01*
X59000Y-39000D02*
X59000Y-29250D01*
X58000Y-40000D02*
X59000Y-39000D01*
X60000Y-29250D02*
X60000Y-39000D01*
X59000Y-40000D02*
X59000Y-40250D01*
X60000Y-39000D02*
X59000Y-40000D01*
X60000Y-40250D02*
X60000Y-40000D01*
X61000Y-39000D02*
X61000Y-29250D01*
X60000Y-40000D02*
X61000Y-39000D01*
X53500Y-21250D02*
X53500Y-22450D01*
X61000Y-22750D02*
X61000Y-23250D01*
X60800Y-22550D02*
X61000Y-22750D01*
X53600Y-22550D02*
X60800Y-22550D01*
X53500Y-22450D02*
X53600Y-22550D01*
X61000Y-23250D02*
X61000Y-26250D01*
X57000Y-35750D02*
X57000Y-26250D01*
X57000Y-26250D02*
X55000Y-24250D01*
X54400Y-25650D02*
X55000Y-26250D01*
X54400Y-23250D02*
X54400Y-25650D01*
X65000Y-42250D02*
X65000Y-41750D01*
X64000Y-40750D02*
X64000Y-40250D01*
X65000Y-41750D02*
X64000Y-40750D01*
X63000Y-42250D02*
X63000Y-41750D01*
X62000Y-40750D02*
X62000Y-40250D01*
X63000Y-41750D02*
X62000Y-40750D01*
X62000Y-42250D02*
X62000Y-41750D01*
X61000Y-40750D02*
X61000Y-40250D01*
X61250Y-41000D02*
X61000Y-40750D01*
X62000Y-41750D02*
X61250Y-41000D01*
X54500Y-21250D02*
X54500Y-22150D01*
X59800Y-22350D02*
X60000Y-22150D01*
X54700Y-22350D02*
X59800Y-22350D01*
X54500Y-22150D02*
X54700Y-22350D01*
X60000Y-23250D02*
X60000Y-26250D01*
X48000Y-24500D02*
X48000Y-23500D01*
X50900Y-22750D02*
X51400Y-23250D01*
X48750Y-22750D02*
X50900Y-22750D01*
X48000Y-23500D02*
X48750Y-22750D01*
X51400Y-23250D02*
X51400Y-24150D01*
X51400Y-24150D02*
X53000Y-25750D01*
X53000Y-25750D02*
X53000Y-33750D01*
X53000Y-33750D02*
X55000Y-35750D01*
G54D24*
X68750Y-23250D02*
X68750Y-22000D01*
X58250Y-20500D02*
X57500Y-21250D01*
X67250Y-20500D02*
X58250Y-20500D01*
X68750Y-22000D02*
X67250Y-20500D01*
X55000Y-40750D02*
X56500Y-39250D01*
X65000Y-37500D02*
X65000Y-36750D01*
X63250Y-39250D02*
X65000Y-37500D01*
X56500Y-39250D02*
X56500Y-39250D01*
X44500Y-21250D02*
X44500Y-21000D01*
X56750Y-20500D02*
X57500Y-21250D01*
X45000Y-20500D02*
X56750Y-20500D01*
X44500Y-21000D02*
X45000Y-20500D01*
X51000Y-36750D02*
X48000Y-36750D01*
X44500Y-33250D02*
X44500Y-29500D01*
X44500Y-29500D02*
X44500Y-25000D01*
X44500Y-25000D02*
X44500Y-24500D01*
X44500Y-24500D02*
X44500Y-21250D01*
X48000Y-36750D02*
X44500Y-33250D01*
X55000Y-42250D02*
X55000Y-40750D01*
X55000Y-40750D02*
X51000Y-36750D01*
M02*
