M48
;DRILL file {PCBnew (2010-04-21 BZR 23xx)-stable} date Sat Oct 15 14:51:28 2011
;FORMAT={-.-/ absolute / inch / decimal}
R,T
VER,1
FMAT,2
INCH,TZ
TCST,OFF
ICI,OFF
ATC,ON
T1C0.025
T2C0.032
T3C0.040
T4C0.100
T5C0.120
%
M47
G05
M72
T1
X4.950Y-2.225
X5.000Y-5.375
X5.175Y-5.375
X5.200Y-2.725
X5.250Y-3.375
X5.500Y-2.425
X5.640Y-2.325
X5.650Y-2.650
X5.650Y-3.925
X5.775Y-2.725
X5.920Y-2.155
X5.990Y-2.155
X6.000Y-2.215
X6.050Y-3.825
X6.150Y-3.375
X6.325Y-3.925
X6.350Y-2.725
X6.575Y-3.450
X6.875Y-2.725
T2
X4.100Y-4.800
X4.100Y-4.900
X4.100Y-5.200
X4.100Y-5.425
X4.200Y-4.800
X4.200Y-4.900
X4.200Y-5.200
X4.200Y-5.325
X4.200Y-5.525
X4.300Y-4.800
X4.300Y-4.900
X4.300Y-5.000
X4.300Y-5.100
X4.400Y-4.675
X4.450Y-5.250
X4.450Y-5.450
X4.500Y-4.675
X4.600Y-4.800
X4.600Y-4.900
X4.600Y-5.000
X4.600Y-5.100
X4.600Y-5.225
X4.600Y-5.525
X4.650Y-2.925
X4.650Y-3.025
X4.700Y-5.225
X4.700Y-5.525
X4.700Y-5.625
X4.750Y-2.925
X4.800Y-2.450
X4.800Y-2.750
X4.800Y-4.825
X4.800Y-4.925
X4.800Y-5.025
X4.800Y-5.125
X4.800Y-5.225
X4.800Y-5.325
X4.800Y-5.425
X4.800Y-5.525
X4.800Y-5.625
X5.100Y-4.825
X5.100Y-4.925
X5.100Y-5.025
X5.100Y-5.125
X5.100Y-5.225
X5.100Y-5.325
X5.100Y-5.425
X5.100Y-5.525
X5.125Y-3.175
X5.200Y-4.675
X5.200Y-4.875
X5.225Y-3.175
X5.325Y-5.675
X5.400Y-3.175
X5.500Y-2.625
X5.500Y-2.925
X5.500Y-3.075
X5.500Y-3.175
X5.625Y-5.125
X5.625Y-5.425
X5.625Y-5.675
X5.750Y-5.600
X5.800Y-2.625
X5.800Y-2.925
X5.850Y-5.500
X5.850Y-5.600
X5.900Y-2.625
X5.900Y-2.925
X6.000Y-2.625
X6.000Y-2.925
X6.100Y-2.625
X6.100Y-2.925
X6.875Y-2.325
X6.875Y-2.525
X6.975Y-2.425
T3
X4.350Y-2.125
X4.450Y-2.125
X4.500Y-3.975
X4.500Y-4.175
X4.550Y-2.125
X4.550Y-3.625
X4.650Y-2.125
X4.650Y-3.625
X4.700Y-3.975
X4.700Y-4.175
X4.750Y-2.125
X4.850Y-2.125
X4.850Y-3.025
X4.850Y-3.425
X4.940Y-2.325
X4.950Y-2.125
X5.040Y-2.325
X5.050Y-2.125
X5.075Y-3.975
X5.075Y-4.175
X5.100Y-3.575
X5.100Y-3.675
X5.140Y-2.325
X5.150Y-2.125
X5.240Y-2.325
X5.250Y-2.125
X5.300Y-3.575
X5.300Y-3.675
X5.300Y-4.225
X5.340Y-2.325
X5.350Y-2.125
X5.350Y-4.825
X5.350Y-4.925
X5.350Y-5.025
X5.350Y-5.125
X5.350Y-5.225
X5.350Y-5.325
X5.350Y-5.425
X5.350Y-5.525
X5.400Y-4.225
X5.440Y-2.325
X5.450Y-2.125
X5.450Y-4.825
X5.450Y-4.925
X5.450Y-5.025
X5.450Y-5.125
X5.450Y-5.225
X5.450Y-5.325
X5.450Y-5.425
X5.450Y-5.525
X5.500Y-3.575
X5.500Y-3.675
X5.500Y-4.225
X5.540Y-2.325
X5.550Y-2.125
X5.600Y-4.225
X5.625Y-4.825
X5.625Y-4.925
X5.625Y-5.025
X5.640Y-2.325
X5.650Y-2.125
X5.700Y-3.575
X5.700Y-3.675
X5.700Y-4.025
X5.700Y-4.225
X5.725Y-5.125
X5.725Y-5.425
X5.750Y-2.125
X5.775Y-4.975
X5.800Y-2.325
X5.800Y-4.025
X5.800Y-4.225
X5.850Y-2.125
X5.875Y-4.975
X5.875Y-5.125
X5.875Y-5.225
X5.900Y-2.325
X5.900Y-4.025
X5.950Y-3.575
X5.950Y-3.675
X6.000Y-2.325
X6.000Y-4.025
X6.000Y-4.225
X6.100Y-2.325
X6.100Y-4.025
X6.100Y-4.225
X6.200Y-2.325
X6.200Y-3.575
X6.200Y-3.675
X6.200Y-4.025
X6.200Y-4.225
X6.300Y-2.325
X6.300Y-3.575
X6.300Y-3.675
X6.300Y-4.025
X6.300Y-4.225
X6.400Y-2.325
X6.400Y-3.575
X6.400Y-3.675
X6.400Y-4.025
X6.400Y-4.225
X6.500Y-2.325
X6.500Y-3.575
X6.500Y-3.675
X6.500Y-4.225
X6.800Y-5.075
X6.800Y-5.275
X6.800Y-5.375
X6.800Y-5.575
X6.900Y-5.275
X6.900Y-5.375
X6.900Y-5.575
X6.950Y-3.925
X6.950Y-4.025
X6.950Y-4.125
X7.000Y-5.075
X7.000Y-5.275
X7.000Y-5.375
X7.000Y-5.575
X7.050Y-3.925
X7.050Y-4.025
X7.050Y-4.125
T4
X6.550Y-5.325
X7.250Y-5.325
T5
X4.135Y-2.125
X4.135Y-3.345
X4.475Y-5.650
X4.600Y-2.325
X5.800Y-4.750
X6.600Y-2.925
X6.600Y-4.025
X7.090Y-2.125
X7.090Y-3.345
T0
M30
