G04 (created by PCBNEW-RS274X (2010-04-21 BZR 23xx)-stable) date Sun Nov 13 22:07:47 2011*
G01*
G70*
G90*
%MOIN*%
G04 Gerber Fmt 3.4, Leading zero omitted, Abs format*
%FSLAX34Y34*%
G04 APERTURE LIST*
%ADD10C,0.006000*%
%ADD11C,0.015000*%
%ADD12C,0.090000*%
%ADD13R,0.090000X0.090000*%
%ADD14R,0.080000X0.080000*%
%ADD15C,0.080000*%
%ADD16C,0.075000*%
%ADD17R,0.075000X0.075000*%
%ADD18O,0.080000X0.100000*%
%ADD19C,0.140000*%
%ADD20C,0.100000*%
%ADD21C,0.070000*%
G04 APERTURE END LIST*
G54D10*
G54D11*
X74250Y-58000D02*
X74250Y-20000D01*
X40000Y-58000D02*
X74250Y-58000D01*
X40000Y-54000D02*
X40000Y-58000D01*
X40000Y-20000D02*
X42250Y-20000D01*
X40000Y-54000D02*
X40000Y-20000D01*
X42250Y-20000D02*
X74250Y-20000D01*
G54D12*
X48500Y-30250D03*
G54D13*
X48500Y-34250D03*
G54D14*
X57000Y-36750D03*
G54D15*
X57000Y-35750D03*
G54D14*
X53000Y-36750D03*
G54D15*
X53000Y-35750D03*
G54D14*
X51000Y-36750D03*
G54D15*
X51000Y-35750D03*
G54D14*
X55000Y-36750D03*
G54D15*
X55000Y-35750D03*
G54D14*
X65000Y-35750D03*
G54D15*
X65000Y-36750D03*
X64000Y-35750D03*
X64000Y-36750D03*
X63000Y-35750D03*
X63000Y-36750D03*
X62000Y-35750D03*
X62000Y-36750D03*
G54D16*
X55000Y-29250D03*
X55000Y-26250D03*
X48000Y-27500D03*
X48000Y-24500D03*
X58000Y-29250D03*
X58000Y-26250D03*
X59000Y-29250D03*
X59000Y-26250D03*
X60000Y-29250D03*
X60000Y-26250D03*
X61000Y-29250D03*
X61000Y-26250D03*
G54D17*
X54000Y-31750D03*
G54D16*
X55000Y-31750D03*
X55000Y-30750D03*
G54D17*
X47500Y-29250D03*
G54D16*
X46500Y-29250D03*
X46500Y-30250D03*
X52250Y-31750D03*
X51250Y-31750D03*
G54D14*
X45500Y-36250D03*
G54D15*
X46500Y-36250D03*
G54D13*
X50750Y-39750D03*
G54D12*
X50750Y-41750D03*
G54D14*
X70500Y-41250D03*
G54D15*
X69500Y-41250D03*
X70500Y-40250D03*
X69500Y-40250D03*
X70500Y-39250D03*
X69500Y-39250D03*
G54D14*
X68000Y-53750D03*
G54D15*
X68000Y-52750D03*
X69000Y-53750D03*
X69000Y-52750D03*
X70000Y-53750D03*
X70000Y-52750D03*
G54D18*
X68000Y-55750D03*
X69000Y-55750D03*
X70000Y-55750D03*
X68000Y-50750D03*
X70000Y-50750D03*
G54D19*
X72500Y-53250D03*
X65500Y-53250D03*
G54D20*
X45000Y-39750D03*
X45000Y-41750D03*
G54D10*
G36*
X46500Y-42250D02*
X46500Y-41250D01*
X47500Y-41250D01*
X47500Y-42250D01*
X46500Y-42250D01*
X46500Y-42250D01*
G37*
G54D20*
X47000Y-39750D03*
G54D15*
X65000Y-23250D03*
X64000Y-23250D03*
X63000Y-23250D03*
X62000Y-23250D03*
X61000Y-23250D03*
X60000Y-23250D03*
X59000Y-23250D03*
X58000Y-23250D03*
X56400Y-23250D03*
X55400Y-23250D03*
X54400Y-23250D03*
X53400Y-23250D03*
X52400Y-23250D03*
X51400Y-23250D03*
X50400Y-23250D03*
X49400Y-23250D03*
X53000Y-42250D03*
X54000Y-42250D03*
X55000Y-42250D03*
X56000Y-42250D03*
X57000Y-42250D03*
X58000Y-42250D03*
X60000Y-42250D03*
X61000Y-42250D03*
X62000Y-42250D03*
X63000Y-42250D03*
X64000Y-42250D03*
X65000Y-42250D03*
G54D19*
X46000Y-23250D03*
X66000Y-40250D03*
X66000Y-29250D03*
G54D14*
X64000Y-40250D03*
G54D15*
X63000Y-40250D03*
X62000Y-40250D03*
X61000Y-40250D03*
X60000Y-40250D03*
X59000Y-40250D03*
X58000Y-40250D03*
X57000Y-40250D03*
G54D21*
X68750Y-23250D03*
X69750Y-24250D03*
X68750Y-25250D03*
G54D15*
X43500Y-21250D03*
X44500Y-21250D03*
X45500Y-21250D03*
X46500Y-21250D03*
X47500Y-21250D03*
X48500Y-21250D03*
X49500Y-21250D03*
X50500Y-21250D03*
X51500Y-21250D03*
X52500Y-21250D03*
X53500Y-21250D03*
X54500Y-21250D03*
X55500Y-21250D03*
X56500Y-21250D03*
X57500Y-21250D03*
X58500Y-21250D03*
G54D19*
X41350Y-21250D03*
X70900Y-21250D03*
X70900Y-33450D03*
X41350Y-33450D03*
G54D14*
X59500Y-35750D03*
G54D15*
X59500Y-36750D03*
G54D16*
X41000Y-48000D03*
X42000Y-48000D03*
X52000Y-46750D03*
X52000Y-48750D03*
X44500Y-52500D03*
X44500Y-54500D03*
G54D14*
X57250Y-51250D03*
G54D15*
X57250Y-54250D03*
G54D17*
X46000Y-52250D03*
G54D16*
X46000Y-55250D03*
G54D17*
X51000Y-55250D03*
G54D16*
X51000Y-54250D03*
X51000Y-53250D03*
X51000Y-52250D03*
X51000Y-51250D03*
X51000Y-50250D03*
X51000Y-49250D03*
X51000Y-48250D03*
X48000Y-48250D03*
X48000Y-49250D03*
X48000Y-50250D03*
X48000Y-51250D03*
X48000Y-52250D03*
X48000Y-53250D03*
X48000Y-54250D03*
X48000Y-55250D03*
G54D17*
X46000Y-51000D03*
G54D16*
X46000Y-50000D03*
X46000Y-49000D03*
X46000Y-48000D03*
X43000Y-48000D03*
X43000Y-49000D03*
X43000Y-50000D03*
X43000Y-51000D03*
G54D14*
X58750Y-51250D03*
G54D15*
X58750Y-52250D03*
G54D14*
X53500Y-48250D03*
G54D15*
X54500Y-48250D03*
X53500Y-49250D03*
X54500Y-49250D03*
X53500Y-50250D03*
X54500Y-50250D03*
X53500Y-51250D03*
X54500Y-51250D03*
X53500Y-52250D03*
X54500Y-52250D03*
X53500Y-53250D03*
X54500Y-53250D03*
X53500Y-54250D03*
X54500Y-54250D03*
X53500Y-55250D03*
X54500Y-55250D03*
G54D21*
X42000Y-55250D03*
X41000Y-54250D03*
X42000Y-53250D03*
G54D16*
X47000Y-52250D03*
X47000Y-55250D03*
X56250Y-56750D03*
X53250Y-56750D03*
X56250Y-51250D03*
X56250Y-54250D03*
X42000Y-49000D03*
X42000Y-52000D03*
X41000Y-49000D03*
X41000Y-52000D03*
G54D17*
X57500Y-56000D03*
G54D16*
X58500Y-56000D03*
X58500Y-55000D03*
G54D14*
X57750Y-49750D03*
G54D15*
X58750Y-49750D03*
G54D14*
X56250Y-48250D03*
G54D15*
X56250Y-49250D03*
X56250Y-50250D03*
G54D19*
X58000Y-47500D03*
X44750Y-56500D03*
G54D16*
X48000Y-56250D03*
X47000Y-56250D03*
X45000Y-46750D03*
X44000Y-46750D03*
M02*
