G04 (created by PCBNEW (2010-04-21 BZR 23xx)-stable) date Sat Oct 15 14:51:31 2011*
G01*
G70*
G90*
%MOIN*%
G04 Gerber Fmt 3.4, Leading zero omitted, Abs format*
%FSLAX34Y34*%
G04 APERTURE LIST*
%ADD10C,0.001000*%
%ADD11C,0.015000*%
%ADD12C,0.008000*%
G04 APERTURE END LIST*
G54D10*
G54D11*
X74250Y-58000D02*
X74250Y-20000D01*
X40000Y-58000D02*
X74250Y-58000D01*
X40000Y-54000D02*
X40000Y-58000D01*
X40000Y-20000D02*
X42250Y-20000D01*
X40000Y-54000D02*
X40000Y-20000D01*
X42250Y-20000D02*
X74250Y-20000D01*
G54D10*
X49375Y-22125D02*
X49625Y-22375D01*
X49625Y-22125D02*
X49375Y-22375D01*
X49875Y-53625D02*
X50125Y-53875D01*
X50125Y-53625D02*
X49875Y-53875D01*
X51625Y-53625D02*
X51875Y-53875D01*
X51875Y-53625D02*
X51625Y-53875D01*
X51875Y-27125D02*
X52125Y-27375D01*
X52125Y-27125D02*
X51875Y-27375D01*
X52375Y-33625D02*
X52625Y-33875D01*
X52625Y-33625D02*
X52375Y-33875D01*
X54875Y-24125D02*
X55125Y-24375D01*
X55125Y-24125D02*
X54875Y-24375D01*
X56275Y-23125D02*
X56525Y-23375D01*
X56525Y-23125D02*
X56275Y-23375D01*
X56375Y-26375D02*
X56625Y-26625D01*
X56625Y-26375D02*
X56375Y-26625D01*
X56375Y-39125D02*
X56625Y-39375D01*
X56625Y-39125D02*
X56375Y-39375D01*
X57625Y-27125D02*
X57875Y-27375D01*
X57875Y-27125D02*
X57625Y-27375D01*
X59075Y-21425D02*
X59325Y-21675D01*
X59325Y-21425D02*
X59075Y-21675D01*
X59775Y-21425D02*
X60025Y-21675D01*
X60025Y-21425D02*
X59775Y-21675D01*
X59875Y-22025D02*
X60125Y-22275D01*
X60125Y-22025D02*
X59875Y-22275D01*
X60375Y-38125D02*
X60625Y-38375D01*
X60625Y-38125D02*
X60375Y-38375D01*
X61375Y-33625D02*
X61625Y-33875D01*
X61625Y-33625D02*
X61375Y-33875D01*
X63125Y-39125D02*
X63375Y-39375D01*
X63375Y-39125D02*
X63125Y-39375D01*
X63375Y-27125D02*
X63625Y-27375D01*
X63625Y-27125D02*
X63375Y-27375D01*
X65625Y-34375D02*
X65875Y-34625D01*
X65875Y-34375D02*
X65625Y-34625D01*
X68625Y-27125D02*
X68875Y-27375D01*
X68875Y-27125D02*
X68625Y-27375D01*
X41160Y-48000D02*
X41156Y-48031D01*
X41147Y-48060D01*
X41133Y-48088D01*
X41113Y-48112D01*
X41089Y-48132D01*
X41062Y-48147D01*
X41032Y-48156D01*
X41001Y-48159D01*
X40971Y-48157D01*
X40941Y-48148D01*
X40913Y-48133D01*
X40889Y-48114D01*
X40868Y-48090D01*
X40853Y-48063D01*
X40844Y-48033D01*
X40841Y-48002D01*
X40843Y-47972D01*
X40852Y-47942D01*
X40866Y-47914D01*
X40885Y-47889D01*
X40909Y-47869D01*
X40936Y-47854D01*
X40966Y-47844D01*
X40997Y-47841D01*
X41027Y-47843D01*
X41057Y-47851D01*
X41085Y-47865D01*
X41110Y-47885D01*
X41130Y-47908D01*
X41146Y-47935D01*
X41156Y-47965D01*
X41159Y-47996D01*
X41160Y-48000D01*
X41160Y-49000D02*
X41156Y-49031D01*
X41147Y-49060D01*
X41133Y-49088D01*
X41113Y-49112D01*
X41089Y-49132D01*
X41062Y-49147D01*
X41032Y-49156D01*
X41001Y-49159D01*
X40971Y-49157D01*
X40941Y-49148D01*
X40913Y-49133D01*
X40889Y-49114D01*
X40868Y-49090D01*
X40853Y-49063D01*
X40844Y-49033D01*
X40841Y-49002D01*
X40843Y-48972D01*
X40852Y-48942D01*
X40866Y-48914D01*
X40885Y-48889D01*
X40909Y-48869D01*
X40936Y-48854D01*
X40966Y-48844D01*
X40997Y-48841D01*
X41027Y-48843D01*
X41057Y-48851D01*
X41085Y-48865D01*
X41110Y-48885D01*
X41130Y-48908D01*
X41146Y-48935D01*
X41156Y-48965D01*
X41159Y-48996D01*
X41160Y-49000D01*
X41160Y-52000D02*
X41156Y-52031D01*
X41147Y-52060D01*
X41133Y-52088D01*
X41113Y-52112D01*
X41089Y-52132D01*
X41062Y-52147D01*
X41032Y-52156D01*
X41001Y-52159D01*
X40971Y-52157D01*
X40941Y-52148D01*
X40913Y-52133D01*
X40889Y-52114D01*
X40868Y-52090D01*
X40853Y-52063D01*
X40844Y-52033D01*
X40841Y-52002D01*
X40843Y-51972D01*
X40852Y-51942D01*
X40866Y-51914D01*
X40885Y-51889D01*
X40909Y-51869D01*
X40936Y-51854D01*
X40966Y-51844D01*
X40997Y-51841D01*
X41027Y-51843D01*
X41057Y-51851D01*
X41085Y-51865D01*
X41110Y-51885D01*
X41130Y-51908D01*
X41146Y-51935D01*
X41156Y-51965D01*
X41159Y-51996D01*
X41160Y-52000D01*
X41160Y-54250D02*
X41156Y-54281D01*
X41147Y-54310D01*
X41133Y-54338D01*
X41113Y-54362D01*
X41089Y-54382D01*
X41062Y-54397D01*
X41032Y-54406D01*
X41001Y-54409D01*
X40971Y-54407D01*
X40941Y-54398D01*
X40913Y-54383D01*
X40889Y-54364D01*
X40868Y-54340D01*
X40853Y-54313D01*
X40844Y-54283D01*
X40841Y-54252D01*
X40843Y-54222D01*
X40852Y-54192D01*
X40866Y-54164D01*
X40885Y-54139D01*
X40909Y-54119D01*
X40936Y-54104D01*
X40966Y-54094D01*
X40997Y-54091D01*
X41027Y-54093D01*
X41057Y-54101D01*
X41085Y-54115D01*
X41110Y-54135D01*
X41130Y-54158D01*
X41146Y-54185D01*
X41156Y-54215D01*
X41159Y-54246D01*
X41160Y-54250D01*
X42160Y-48000D02*
X42156Y-48031D01*
X42147Y-48060D01*
X42133Y-48088D01*
X42113Y-48112D01*
X42089Y-48132D01*
X42062Y-48147D01*
X42032Y-48156D01*
X42001Y-48159D01*
X41971Y-48157D01*
X41941Y-48148D01*
X41913Y-48133D01*
X41889Y-48114D01*
X41868Y-48090D01*
X41853Y-48063D01*
X41844Y-48033D01*
X41841Y-48002D01*
X41843Y-47972D01*
X41852Y-47942D01*
X41866Y-47914D01*
X41885Y-47889D01*
X41909Y-47869D01*
X41936Y-47854D01*
X41966Y-47844D01*
X41997Y-47841D01*
X42027Y-47843D01*
X42057Y-47851D01*
X42085Y-47865D01*
X42110Y-47885D01*
X42130Y-47908D01*
X42146Y-47935D01*
X42156Y-47965D01*
X42159Y-47996D01*
X42160Y-48000D01*
X42160Y-49000D02*
X42156Y-49031D01*
X42147Y-49060D01*
X42133Y-49088D01*
X42113Y-49112D01*
X42089Y-49132D01*
X42062Y-49147D01*
X42032Y-49156D01*
X42001Y-49159D01*
X41971Y-49157D01*
X41941Y-49148D01*
X41913Y-49133D01*
X41889Y-49114D01*
X41868Y-49090D01*
X41853Y-49063D01*
X41844Y-49033D01*
X41841Y-49002D01*
X41843Y-48972D01*
X41852Y-48942D01*
X41866Y-48914D01*
X41885Y-48889D01*
X41909Y-48869D01*
X41936Y-48854D01*
X41966Y-48844D01*
X41997Y-48841D01*
X42027Y-48843D01*
X42057Y-48851D01*
X42085Y-48865D01*
X42110Y-48885D01*
X42130Y-48908D01*
X42146Y-48935D01*
X42156Y-48965D01*
X42159Y-48996D01*
X42160Y-49000D01*
X42160Y-52000D02*
X42156Y-52031D01*
X42147Y-52060D01*
X42133Y-52088D01*
X42113Y-52112D01*
X42089Y-52132D01*
X42062Y-52147D01*
X42032Y-52156D01*
X42001Y-52159D01*
X41971Y-52157D01*
X41941Y-52148D01*
X41913Y-52133D01*
X41889Y-52114D01*
X41868Y-52090D01*
X41853Y-52063D01*
X41844Y-52033D01*
X41841Y-52002D01*
X41843Y-51972D01*
X41852Y-51942D01*
X41866Y-51914D01*
X41885Y-51889D01*
X41909Y-51869D01*
X41936Y-51854D01*
X41966Y-51844D01*
X41997Y-51841D01*
X42027Y-51843D01*
X42057Y-51851D01*
X42085Y-51865D01*
X42110Y-51885D01*
X42130Y-51908D01*
X42146Y-51935D01*
X42156Y-51965D01*
X42159Y-51996D01*
X42160Y-52000D01*
X42160Y-53250D02*
X42156Y-53281D01*
X42147Y-53310D01*
X42133Y-53338D01*
X42113Y-53362D01*
X42089Y-53382D01*
X42062Y-53397D01*
X42032Y-53406D01*
X42001Y-53409D01*
X41971Y-53407D01*
X41941Y-53398D01*
X41913Y-53383D01*
X41889Y-53364D01*
X41868Y-53340D01*
X41853Y-53313D01*
X41844Y-53283D01*
X41841Y-53252D01*
X41843Y-53222D01*
X41852Y-53192D01*
X41866Y-53164D01*
X41885Y-53139D01*
X41909Y-53119D01*
X41936Y-53104D01*
X41966Y-53094D01*
X41997Y-53091D01*
X42027Y-53093D01*
X42057Y-53101D01*
X42085Y-53115D01*
X42110Y-53135D01*
X42130Y-53158D01*
X42146Y-53185D01*
X42156Y-53215D01*
X42159Y-53246D01*
X42160Y-53250D01*
X42160Y-55250D02*
X42156Y-55281D01*
X42147Y-55310D01*
X42133Y-55338D01*
X42113Y-55362D01*
X42089Y-55382D01*
X42062Y-55397D01*
X42032Y-55406D01*
X42001Y-55409D01*
X41971Y-55407D01*
X41941Y-55398D01*
X41913Y-55383D01*
X41889Y-55364D01*
X41868Y-55340D01*
X41853Y-55313D01*
X41844Y-55283D01*
X41841Y-55252D01*
X41843Y-55222D01*
X41852Y-55192D01*
X41866Y-55164D01*
X41885Y-55139D01*
X41909Y-55119D01*
X41936Y-55104D01*
X41966Y-55094D01*
X41997Y-55091D01*
X42027Y-55093D01*
X42057Y-55101D01*
X42085Y-55115D01*
X42110Y-55135D01*
X42130Y-55158D01*
X42146Y-55185D01*
X42156Y-55215D01*
X42159Y-55246D01*
X42160Y-55250D01*
X43160Y-48000D02*
X43156Y-48031D01*
X43147Y-48060D01*
X43133Y-48088D01*
X43113Y-48112D01*
X43089Y-48132D01*
X43062Y-48147D01*
X43032Y-48156D01*
X43001Y-48159D01*
X42971Y-48157D01*
X42941Y-48148D01*
X42913Y-48133D01*
X42889Y-48114D01*
X42868Y-48090D01*
X42853Y-48063D01*
X42844Y-48033D01*
X42841Y-48002D01*
X42843Y-47972D01*
X42852Y-47942D01*
X42866Y-47914D01*
X42885Y-47889D01*
X42909Y-47869D01*
X42936Y-47854D01*
X42966Y-47844D01*
X42997Y-47841D01*
X43027Y-47843D01*
X43057Y-47851D01*
X43085Y-47865D01*
X43110Y-47885D01*
X43130Y-47908D01*
X43146Y-47935D01*
X43156Y-47965D01*
X43159Y-47996D01*
X43160Y-48000D01*
X43160Y-49000D02*
X43156Y-49031D01*
X43147Y-49060D01*
X43133Y-49088D01*
X43113Y-49112D01*
X43089Y-49132D01*
X43062Y-49147D01*
X43032Y-49156D01*
X43001Y-49159D01*
X42971Y-49157D01*
X42941Y-49148D01*
X42913Y-49133D01*
X42889Y-49114D01*
X42868Y-49090D01*
X42853Y-49063D01*
X42844Y-49033D01*
X42841Y-49002D01*
X42843Y-48972D01*
X42852Y-48942D01*
X42866Y-48914D01*
X42885Y-48889D01*
X42909Y-48869D01*
X42936Y-48854D01*
X42966Y-48844D01*
X42997Y-48841D01*
X43027Y-48843D01*
X43057Y-48851D01*
X43085Y-48865D01*
X43110Y-48885D01*
X43130Y-48908D01*
X43146Y-48935D01*
X43156Y-48965D01*
X43159Y-48996D01*
X43160Y-49000D01*
X43160Y-50000D02*
X43156Y-50031D01*
X43147Y-50060D01*
X43133Y-50088D01*
X43113Y-50112D01*
X43089Y-50132D01*
X43062Y-50147D01*
X43032Y-50156D01*
X43001Y-50159D01*
X42971Y-50157D01*
X42941Y-50148D01*
X42913Y-50133D01*
X42889Y-50114D01*
X42868Y-50090D01*
X42853Y-50063D01*
X42844Y-50033D01*
X42841Y-50002D01*
X42843Y-49972D01*
X42852Y-49942D01*
X42866Y-49914D01*
X42885Y-49889D01*
X42909Y-49869D01*
X42936Y-49854D01*
X42966Y-49844D01*
X42997Y-49841D01*
X43027Y-49843D01*
X43057Y-49851D01*
X43085Y-49865D01*
X43110Y-49885D01*
X43130Y-49908D01*
X43146Y-49935D01*
X43156Y-49965D01*
X43159Y-49996D01*
X43160Y-50000D01*
X43160Y-51000D02*
X43156Y-51031D01*
X43147Y-51060D01*
X43133Y-51088D01*
X43113Y-51112D01*
X43089Y-51132D01*
X43062Y-51147D01*
X43032Y-51156D01*
X43001Y-51159D01*
X42971Y-51157D01*
X42941Y-51148D01*
X42913Y-51133D01*
X42889Y-51114D01*
X42868Y-51090D01*
X42853Y-51063D01*
X42844Y-51033D01*
X42841Y-51002D01*
X42843Y-50972D01*
X42852Y-50942D01*
X42866Y-50914D01*
X42885Y-50889D01*
X42909Y-50869D01*
X42936Y-50854D01*
X42966Y-50844D01*
X42997Y-50841D01*
X43027Y-50843D01*
X43057Y-50851D01*
X43085Y-50865D01*
X43110Y-50885D01*
X43130Y-50908D01*
X43146Y-50935D01*
X43156Y-50965D01*
X43159Y-50996D01*
X43160Y-51000D01*
X44160Y-46750D02*
X44156Y-46781D01*
X44147Y-46810D01*
X44133Y-46838D01*
X44113Y-46862D01*
X44089Y-46882D01*
X44062Y-46897D01*
X44032Y-46906D01*
X44001Y-46909D01*
X43971Y-46907D01*
X43941Y-46898D01*
X43913Y-46883D01*
X43889Y-46864D01*
X43868Y-46840D01*
X43853Y-46813D01*
X43844Y-46783D01*
X43841Y-46752D01*
X43843Y-46722D01*
X43852Y-46692D01*
X43866Y-46664D01*
X43885Y-46639D01*
X43909Y-46619D01*
X43936Y-46604D01*
X43966Y-46594D01*
X43997Y-46591D01*
X44027Y-46593D01*
X44057Y-46601D01*
X44085Y-46615D01*
X44110Y-46635D01*
X44130Y-46658D01*
X44146Y-46685D01*
X44156Y-46715D01*
X44159Y-46746D01*
X44160Y-46750D01*
X44660Y-52500D02*
X44656Y-52531D01*
X44647Y-52560D01*
X44633Y-52588D01*
X44613Y-52612D01*
X44589Y-52632D01*
X44562Y-52647D01*
X44532Y-52656D01*
X44501Y-52659D01*
X44471Y-52657D01*
X44441Y-52648D01*
X44413Y-52633D01*
X44389Y-52614D01*
X44368Y-52590D01*
X44353Y-52563D01*
X44344Y-52533D01*
X44341Y-52502D01*
X44343Y-52472D01*
X44352Y-52442D01*
X44366Y-52414D01*
X44385Y-52389D01*
X44409Y-52369D01*
X44436Y-52354D01*
X44466Y-52344D01*
X44497Y-52341D01*
X44527Y-52343D01*
X44557Y-52351D01*
X44585Y-52365D01*
X44610Y-52385D01*
X44630Y-52408D01*
X44646Y-52435D01*
X44656Y-52465D01*
X44659Y-52496D01*
X44660Y-52500D01*
X44660Y-54500D02*
X44656Y-54531D01*
X44647Y-54560D01*
X44633Y-54588D01*
X44613Y-54612D01*
X44589Y-54632D01*
X44562Y-54647D01*
X44532Y-54656D01*
X44501Y-54659D01*
X44471Y-54657D01*
X44441Y-54648D01*
X44413Y-54633D01*
X44389Y-54614D01*
X44368Y-54590D01*
X44353Y-54563D01*
X44344Y-54533D01*
X44341Y-54502D01*
X44343Y-54472D01*
X44352Y-54442D01*
X44366Y-54414D01*
X44385Y-54389D01*
X44409Y-54369D01*
X44436Y-54354D01*
X44466Y-54344D01*
X44497Y-54341D01*
X44527Y-54343D01*
X44557Y-54351D01*
X44585Y-54365D01*
X44610Y-54385D01*
X44630Y-54408D01*
X44646Y-54435D01*
X44656Y-54465D01*
X44659Y-54496D01*
X44660Y-54500D01*
X45160Y-46750D02*
X45156Y-46781D01*
X45147Y-46810D01*
X45133Y-46838D01*
X45113Y-46862D01*
X45089Y-46882D01*
X45062Y-46897D01*
X45032Y-46906D01*
X45001Y-46909D01*
X44971Y-46907D01*
X44941Y-46898D01*
X44913Y-46883D01*
X44889Y-46864D01*
X44868Y-46840D01*
X44853Y-46813D01*
X44844Y-46783D01*
X44841Y-46752D01*
X44843Y-46722D01*
X44852Y-46692D01*
X44866Y-46664D01*
X44885Y-46639D01*
X44909Y-46619D01*
X44936Y-46604D01*
X44966Y-46594D01*
X44997Y-46591D01*
X45027Y-46593D01*
X45057Y-46601D01*
X45085Y-46615D01*
X45110Y-46635D01*
X45130Y-46658D01*
X45146Y-46685D01*
X45156Y-46715D01*
X45159Y-46746D01*
X45160Y-46750D01*
X46160Y-48000D02*
X46156Y-48031D01*
X46147Y-48060D01*
X46133Y-48088D01*
X46113Y-48112D01*
X46089Y-48132D01*
X46062Y-48147D01*
X46032Y-48156D01*
X46001Y-48159D01*
X45971Y-48157D01*
X45941Y-48148D01*
X45913Y-48133D01*
X45889Y-48114D01*
X45868Y-48090D01*
X45853Y-48063D01*
X45844Y-48033D01*
X45841Y-48002D01*
X45843Y-47972D01*
X45852Y-47942D01*
X45866Y-47914D01*
X45885Y-47889D01*
X45909Y-47869D01*
X45936Y-47854D01*
X45966Y-47844D01*
X45997Y-47841D01*
X46027Y-47843D01*
X46057Y-47851D01*
X46085Y-47865D01*
X46110Y-47885D01*
X46130Y-47908D01*
X46146Y-47935D01*
X46156Y-47965D01*
X46159Y-47996D01*
X46160Y-48000D01*
X46160Y-49000D02*
X46156Y-49031D01*
X46147Y-49060D01*
X46133Y-49088D01*
X46113Y-49112D01*
X46089Y-49132D01*
X46062Y-49147D01*
X46032Y-49156D01*
X46001Y-49159D01*
X45971Y-49157D01*
X45941Y-49148D01*
X45913Y-49133D01*
X45889Y-49114D01*
X45868Y-49090D01*
X45853Y-49063D01*
X45844Y-49033D01*
X45841Y-49002D01*
X45843Y-48972D01*
X45852Y-48942D01*
X45866Y-48914D01*
X45885Y-48889D01*
X45909Y-48869D01*
X45936Y-48854D01*
X45966Y-48844D01*
X45997Y-48841D01*
X46027Y-48843D01*
X46057Y-48851D01*
X46085Y-48865D01*
X46110Y-48885D01*
X46130Y-48908D01*
X46146Y-48935D01*
X46156Y-48965D01*
X46159Y-48996D01*
X46160Y-49000D01*
X46160Y-50000D02*
X46156Y-50031D01*
X46147Y-50060D01*
X46133Y-50088D01*
X46113Y-50112D01*
X46089Y-50132D01*
X46062Y-50147D01*
X46032Y-50156D01*
X46001Y-50159D01*
X45971Y-50157D01*
X45941Y-50148D01*
X45913Y-50133D01*
X45889Y-50114D01*
X45868Y-50090D01*
X45853Y-50063D01*
X45844Y-50033D01*
X45841Y-50002D01*
X45843Y-49972D01*
X45852Y-49942D01*
X45866Y-49914D01*
X45885Y-49889D01*
X45909Y-49869D01*
X45936Y-49854D01*
X45966Y-49844D01*
X45997Y-49841D01*
X46027Y-49843D01*
X46057Y-49851D01*
X46085Y-49865D01*
X46110Y-49885D01*
X46130Y-49908D01*
X46146Y-49935D01*
X46156Y-49965D01*
X46159Y-49996D01*
X46160Y-50000D01*
X46160Y-51000D02*
X46156Y-51031D01*
X46147Y-51060D01*
X46133Y-51088D01*
X46113Y-51112D01*
X46089Y-51132D01*
X46062Y-51147D01*
X46032Y-51156D01*
X46001Y-51159D01*
X45971Y-51157D01*
X45941Y-51148D01*
X45913Y-51133D01*
X45889Y-51114D01*
X45868Y-51090D01*
X45853Y-51063D01*
X45844Y-51033D01*
X45841Y-51002D01*
X45843Y-50972D01*
X45852Y-50942D01*
X45866Y-50914D01*
X45885Y-50889D01*
X45909Y-50869D01*
X45936Y-50854D01*
X45966Y-50844D01*
X45997Y-50841D01*
X46027Y-50843D01*
X46057Y-50851D01*
X46085Y-50865D01*
X46110Y-50885D01*
X46130Y-50908D01*
X46146Y-50935D01*
X46156Y-50965D01*
X46159Y-50996D01*
X46160Y-51000D01*
X46160Y-52250D02*
X46156Y-52281D01*
X46147Y-52310D01*
X46133Y-52338D01*
X46113Y-52362D01*
X46089Y-52382D01*
X46062Y-52397D01*
X46032Y-52406D01*
X46001Y-52409D01*
X45971Y-52407D01*
X45941Y-52398D01*
X45913Y-52383D01*
X45889Y-52364D01*
X45868Y-52340D01*
X45853Y-52313D01*
X45844Y-52283D01*
X45841Y-52252D01*
X45843Y-52222D01*
X45852Y-52192D01*
X45866Y-52164D01*
X45885Y-52139D01*
X45909Y-52119D01*
X45936Y-52104D01*
X45966Y-52094D01*
X45997Y-52091D01*
X46027Y-52093D01*
X46057Y-52101D01*
X46085Y-52115D01*
X46110Y-52135D01*
X46130Y-52158D01*
X46146Y-52185D01*
X46156Y-52215D01*
X46159Y-52246D01*
X46160Y-52250D01*
X46160Y-55250D02*
X46156Y-55281D01*
X46147Y-55310D01*
X46133Y-55338D01*
X46113Y-55362D01*
X46089Y-55382D01*
X46062Y-55397D01*
X46032Y-55406D01*
X46001Y-55409D01*
X45971Y-55407D01*
X45941Y-55398D01*
X45913Y-55383D01*
X45889Y-55364D01*
X45868Y-55340D01*
X45853Y-55313D01*
X45844Y-55283D01*
X45841Y-55252D01*
X45843Y-55222D01*
X45852Y-55192D01*
X45866Y-55164D01*
X45885Y-55139D01*
X45909Y-55119D01*
X45936Y-55104D01*
X45966Y-55094D01*
X45997Y-55091D01*
X46027Y-55093D01*
X46057Y-55101D01*
X46085Y-55115D01*
X46110Y-55135D01*
X46130Y-55158D01*
X46146Y-55185D01*
X46156Y-55215D01*
X46159Y-55246D01*
X46160Y-55250D01*
X46660Y-29250D02*
X46656Y-29281D01*
X46647Y-29310D01*
X46633Y-29338D01*
X46613Y-29362D01*
X46589Y-29382D01*
X46562Y-29397D01*
X46532Y-29406D01*
X46501Y-29409D01*
X46471Y-29407D01*
X46441Y-29398D01*
X46413Y-29383D01*
X46389Y-29364D01*
X46368Y-29340D01*
X46353Y-29313D01*
X46344Y-29283D01*
X46341Y-29252D01*
X46343Y-29222D01*
X46352Y-29192D01*
X46366Y-29164D01*
X46385Y-29139D01*
X46409Y-29119D01*
X46436Y-29104D01*
X46466Y-29094D01*
X46497Y-29091D01*
X46527Y-29093D01*
X46557Y-29101D01*
X46585Y-29115D01*
X46610Y-29135D01*
X46630Y-29158D01*
X46646Y-29185D01*
X46656Y-29215D01*
X46659Y-29246D01*
X46660Y-29250D01*
X46660Y-30250D02*
X46656Y-30281D01*
X46647Y-30310D01*
X46633Y-30338D01*
X46613Y-30362D01*
X46589Y-30382D01*
X46562Y-30397D01*
X46532Y-30406D01*
X46501Y-30409D01*
X46471Y-30407D01*
X46441Y-30398D01*
X46413Y-30383D01*
X46389Y-30364D01*
X46368Y-30340D01*
X46353Y-30313D01*
X46344Y-30283D01*
X46341Y-30252D01*
X46343Y-30222D01*
X46352Y-30192D01*
X46366Y-30164D01*
X46385Y-30139D01*
X46409Y-30119D01*
X46436Y-30104D01*
X46466Y-30094D01*
X46497Y-30091D01*
X46527Y-30093D01*
X46557Y-30101D01*
X46585Y-30115D01*
X46610Y-30135D01*
X46630Y-30158D01*
X46646Y-30185D01*
X46656Y-30215D01*
X46659Y-30246D01*
X46660Y-30250D01*
X47160Y-52250D02*
X47156Y-52281D01*
X47147Y-52310D01*
X47133Y-52338D01*
X47113Y-52362D01*
X47089Y-52382D01*
X47062Y-52397D01*
X47032Y-52406D01*
X47001Y-52409D01*
X46971Y-52407D01*
X46941Y-52398D01*
X46913Y-52383D01*
X46889Y-52364D01*
X46868Y-52340D01*
X46853Y-52313D01*
X46844Y-52283D01*
X46841Y-52252D01*
X46843Y-52222D01*
X46852Y-52192D01*
X46866Y-52164D01*
X46885Y-52139D01*
X46909Y-52119D01*
X46936Y-52104D01*
X46966Y-52094D01*
X46997Y-52091D01*
X47027Y-52093D01*
X47057Y-52101D01*
X47085Y-52115D01*
X47110Y-52135D01*
X47130Y-52158D01*
X47146Y-52185D01*
X47156Y-52215D01*
X47159Y-52246D01*
X47160Y-52250D01*
X47160Y-55250D02*
X47156Y-55281D01*
X47147Y-55310D01*
X47133Y-55338D01*
X47113Y-55362D01*
X47089Y-55382D01*
X47062Y-55397D01*
X47032Y-55406D01*
X47001Y-55409D01*
X46971Y-55407D01*
X46941Y-55398D01*
X46913Y-55383D01*
X46889Y-55364D01*
X46868Y-55340D01*
X46853Y-55313D01*
X46844Y-55283D01*
X46841Y-55252D01*
X46843Y-55222D01*
X46852Y-55192D01*
X46866Y-55164D01*
X46885Y-55139D01*
X46909Y-55119D01*
X46936Y-55104D01*
X46966Y-55094D01*
X46997Y-55091D01*
X47027Y-55093D01*
X47057Y-55101D01*
X47085Y-55115D01*
X47110Y-55135D01*
X47130Y-55158D01*
X47146Y-55185D01*
X47156Y-55215D01*
X47159Y-55246D01*
X47160Y-55250D01*
X47160Y-56250D02*
X47156Y-56281D01*
X47147Y-56310D01*
X47133Y-56338D01*
X47113Y-56362D01*
X47089Y-56382D01*
X47062Y-56397D01*
X47032Y-56406D01*
X47001Y-56409D01*
X46971Y-56407D01*
X46941Y-56398D01*
X46913Y-56383D01*
X46889Y-56364D01*
X46868Y-56340D01*
X46853Y-56313D01*
X46844Y-56283D01*
X46841Y-56252D01*
X46843Y-56222D01*
X46852Y-56192D01*
X46866Y-56164D01*
X46885Y-56139D01*
X46909Y-56119D01*
X46936Y-56104D01*
X46966Y-56094D01*
X46997Y-56091D01*
X47027Y-56093D01*
X47057Y-56101D01*
X47085Y-56115D01*
X47110Y-56135D01*
X47130Y-56158D01*
X47146Y-56185D01*
X47156Y-56215D01*
X47159Y-56246D01*
X47160Y-56250D01*
X47660Y-29250D02*
X47656Y-29281D01*
X47647Y-29310D01*
X47633Y-29338D01*
X47613Y-29362D01*
X47589Y-29382D01*
X47562Y-29397D01*
X47532Y-29406D01*
X47501Y-29409D01*
X47471Y-29407D01*
X47441Y-29398D01*
X47413Y-29383D01*
X47389Y-29364D01*
X47368Y-29340D01*
X47353Y-29313D01*
X47344Y-29283D01*
X47341Y-29252D01*
X47343Y-29222D01*
X47352Y-29192D01*
X47366Y-29164D01*
X47385Y-29139D01*
X47409Y-29119D01*
X47436Y-29104D01*
X47466Y-29094D01*
X47497Y-29091D01*
X47527Y-29093D01*
X47557Y-29101D01*
X47585Y-29115D01*
X47610Y-29135D01*
X47630Y-29158D01*
X47646Y-29185D01*
X47656Y-29215D01*
X47659Y-29246D01*
X47660Y-29250D01*
X48160Y-24500D02*
X48156Y-24531D01*
X48147Y-24560D01*
X48133Y-24588D01*
X48113Y-24612D01*
X48089Y-24632D01*
X48062Y-24647D01*
X48032Y-24656D01*
X48001Y-24659D01*
X47971Y-24657D01*
X47941Y-24648D01*
X47913Y-24633D01*
X47889Y-24614D01*
X47868Y-24590D01*
X47853Y-24563D01*
X47844Y-24533D01*
X47841Y-24502D01*
X47843Y-24472D01*
X47852Y-24442D01*
X47866Y-24414D01*
X47885Y-24389D01*
X47909Y-24369D01*
X47936Y-24354D01*
X47966Y-24344D01*
X47997Y-24341D01*
X48027Y-24343D01*
X48057Y-24351D01*
X48085Y-24365D01*
X48110Y-24385D01*
X48130Y-24408D01*
X48146Y-24435D01*
X48156Y-24465D01*
X48159Y-24496D01*
X48160Y-24500D01*
X48160Y-27500D02*
X48156Y-27531D01*
X48147Y-27560D01*
X48133Y-27588D01*
X48113Y-27612D01*
X48089Y-27632D01*
X48062Y-27647D01*
X48032Y-27656D01*
X48001Y-27659D01*
X47971Y-27657D01*
X47941Y-27648D01*
X47913Y-27633D01*
X47889Y-27614D01*
X47868Y-27590D01*
X47853Y-27563D01*
X47844Y-27533D01*
X47841Y-27502D01*
X47843Y-27472D01*
X47852Y-27442D01*
X47866Y-27414D01*
X47885Y-27389D01*
X47909Y-27369D01*
X47936Y-27354D01*
X47966Y-27344D01*
X47997Y-27341D01*
X48027Y-27343D01*
X48057Y-27351D01*
X48085Y-27365D01*
X48110Y-27385D01*
X48130Y-27408D01*
X48146Y-27435D01*
X48156Y-27465D01*
X48159Y-27496D01*
X48160Y-27500D01*
X48160Y-48250D02*
X48156Y-48281D01*
X48147Y-48310D01*
X48133Y-48338D01*
X48113Y-48362D01*
X48089Y-48382D01*
X48062Y-48397D01*
X48032Y-48406D01*
X48001Y-48409D01*
X47971Y-48407D01*
X47941Y-48398D01*
X47913Y-48383D01*
X47889Y-48364D01*
X47868Y-48340D01*
X47853Y-48313D01*
X47844Y-48283D01*
X47841Y-48252D01*
X47843Y-48222D01*
X47852Y-48192D01*
X47866Y-48164D01*
X47885Y-48139D01*
X47909Y-48119D01*
X47936Y-48104D01*
X47966Y-48094D01*
X47997Y-48091D01*
X48027Y-48093D01*
X48057Y-48101D01*
X48085Y-48115D01*
X48110Y-48135D01*
X48130Y-48158D01*
X48146Y-48185D01*
X48156Y-48215D01*
X48159Y-48246D01*
X48160Y-48250D01*
X48160Y-49250D02*
X48156Y-49281D01*
X48147Y-49310D01*
X48133Y-49338D01*
X48113Y-49362D01*
X48089Y-49382D01*
X48062Y-49397D01*
X48032Y-49406D01*
X48001Y-49409D01*
X47971Y-49407D01*
X47941Y-49398D01*
X47913Y-49383D01*
X47889Y-49364D01*
X47868Y-49340D01*
X47853Y-49313D01*
X47844Y-49283D01*
X47841Y-49252D01*
X47843Y-49222D01*
X47852Y-49192D01*
X47866Y-49164D01*
X47885Y-49139D01*
X47909Y-49119D01*
X47936Y-49104D01*
X47966Y-49094D01*
X47997Y-49091D01*
X48027Y-49093D01*
X48057Y-49101D01*
X48085Y-49115D01*
X48110Y-49135D01*
X48130Y-49158D01*
X48146Y-49185D01*
X48156Y-49215D01*
X48159Y-49246D01*
X48160Y-49250D01*
X48160Y-50250D02*
X48156Y-50281D01*
X48147Y-50310D01*
X48133Y-50338D01*
X48113Y-50362D01*
X48089Y-50382D01*
X48062Y-50397D01*
X48032Y-50406D01*
X48001Y-50409D01*
X47971Y-50407D01*
X47941Y-50398D01*
X47913Y-50383D01*
X47889Y-50364D01*
X47868Y-50340D01*
X47853Y-50313D01*
X47844Y-50283D01*
X47841Y-50252D01*
X47843Y-50222D01*
X47852Y-50192D01*
X47866Y-50164D01*
X47885Y-50139D01*
X47909Y-50119D01*
X47936Y-50104D01*
X47966Y-50094D01*
X47997Y-50091D01*
X48027Y-50093D01*
X48057Y-50101D01*
X48085Y-50115D01*
X48110Y-50135D01*
X48130Y-50158D01*
X48146Y-50185D01*
X48156Y-50215D01*
X48159Y-50246D01*
X48160Y-50250D01*
X48160Y-51250D02*
X48156Y-51281D01*
X48147Y-51310D01*
X48133Y-51338D01*
X48113Y-51362D01*
X48089Y-51382D01*
X48062Y-51397D01*
X48032Y-51406D01*
X48001Y-51409D01*
X47971Y-51407D01*
X47941Y-51398D01*
X47913Y-51383D01*
X47889Y-51364D01*
X47868Y-51340D01*
X47853Y-51313D01*
X47844Y-51283D01*
X47841Y-51252D01*
X47843Y-51222D01*
X47852Y-51192D01*
X47866Y-51164D01*
X47885Y-51139D01*
X47909Y-51119D01*
X47936Y-51104D01*
X47966Y-51094D01*
X47997Y-51091D01*
X48027Y-51093D01*
X48057Y-51101D01*
X48085Y-51115D01*
X48110Y-51135D01*
X48130Y-51158D01*
X48146Y-51185D01*
X48156Y-51215D01*
X48159Y-51246D01*
X48160Y-51250D01*
X48160Y-52250D02*
X48156Y-52281D01*
X48147Y-52310D01*
X48133Y-52338D01*
X48113Y-52362D01*
X48089Y-52382D01*
X48062Y-52397D01*
X48032Y-52406D01*
X48001Y-52409D01*
X47971Y-52407D01*
X47941Y-52398D01*
X47913Y-52383D01*
X47889Y-52364D01*
X47868Y-52340D01*
X47853Y-52313D01*
X47844Y-52283D01*
X47841Y-52252D01*
X47843Y-52222D01*
X47852Y-52192D01*
X47866Y-52164D01*
X47885Y-52139D01*
X47909Y-52119D01*
X47936Y-52104D01*
X47966Y-52094D01*
X47997Y-52091D01*
X48027Y-52093D01*
X48057Y-52101D01*
X48085Y-52115D01*
X48110Y-52135D01*
X48130Y-52158D01*
X48146Y-52185D01*
X48156Y-52215D01*
X48159Y-52246D01*
X48160Y-52250D01*
X48160Y-53250D02*
X48156Y-53281D01*
X48147Y-53310D01*
X48133Y-53338D01*
X48113Y-53362D01*
X48089Y-53382D01*
X48062Y-53397D01*
X48032Y-53406D01*
X48001Y-53409D01*
X47971Y-53407D01*
X47941Y-53398D01*
X47913Y-53383D01*
X47889Y-53364D01*
X47868Y-53340D01*
X47853Y-53313D01*
X47844Y-53283D01*
X47841Y-53252D01*
X47843Y-53222D01*
X47852Y-53192D01*
X47866Y-53164D01*
X47885Y-53139D01*
X47909Y-53119D01*
X47936Y-53104D01*
X47966Y-53094D01*
X47997Y-53091D01*
X48027Y-53093D01*
X48057Y-53101D01*
X48085Y-53115D01*
X48110Y-53135D01*
X48130Y-53158D01*
X48146Y-53185D01*
X48156Y-53215D01*
X48159Y-53246D01*
X48160Y-53250D01*
X48160Y-54250D02*
X48156Y-54281D01*
X48147Y-54310D01*
X48133Y-54338D01*
X48113Y-54362D01*
X48089Y-54382D01*
X48062Y-54397D01*
X48032Y-54406D01*
X48001Y-54409D01*
X47971Y-54407D01*
X47941Y-54398D01*
X47913Y-54383D01*
X47889Y-54364D01*
X47868Y-54340D01*
X47853Y-54313D01*
X47844Y-54283D01*
X47841Y-54252D01*
X47843Y-54222D01*
X47852Y-54192D01*
X47866Y-54164D01*
X47885Y-54139D01*
X47909Y-54119D01*
X47936Y-54104D01*
X47966Y-54094D01*
X47997Y-54091D01*
X48027Y-54093D01*
X48057Y-54101D01*
X48085Y-54115D01*
X48110Y-54135D01*
X48130Y-54158D01*
X48146Y-54185D01*
X48156Y-54215D01*
X48159Y-54246D01*
X48160Y-54250D01*
X48160Y-55250D02*
X48156Y-55281D01*
X48147Y-55310D01*
X48133Y-55338D01*
X48113Y-55362D01*
X48089Y-55382D01*
X48062Y-55397D01*
X48032Y-55406D01*
X48001Y-55409D01*
X47971Y-55407D01*
X47941Y-55398D01*
X47913Y-55383D01*
X47889Y-55364D01*
X47868Y-55340D01*
X47853Y-55313D01*
X47844Y-55283D01*
X47841Y-55252D01*
X47843Y-55222D01*
X47852Y-55192D01*
X47866Y-55164D01*
X47885Y-55139D01*
X47909Y-55119D01*
X47936Y-55104D01*
X47966Y-55094D01*
X47997Y-55091D01*
X48027Y-55093D01*
X48057Y-55101D01*
X48085Y-55115D01*
X48110Y-55135D01*
X48130Y-55158D01*
X48146Y-55185D01*
X48156Y-55215D01*
X48159Y-55246D01*
X48160Y-55250D01*
X48160Y-56250D02*
X48156Y-56281D01*
X48147Y-56310D01*
X48133Y-56338D01*
X48113Y-56362D01*
X48089Y-56382D01*
X48062Y-56397D01*
X48032Y-56406D01*
X48001Y-56409D01*
X47971Y-56407D01*
X47941Y-56398D01*
X47913Y-56383D01*
X47889Y-56364D01*
X47868Y-56340D01*
X47853Y-56313D01*
X47844Y-56283D01*
X47841Y-56252D01*
X47843Y-56222D01*
X47852Y-56192D01*
X47866Y-56164D01*
X47885Y-56139D01*
X47909Y-56119D01*
X47936Y-56104D01*
X47966Y-56094D01*
X47997Y-56091D01*
X48027Y-56093D01*
X48057Y-56101D01*
X48085Y-56115D01*
X48110Y-56135D01*
X48130Y-56158D01*
X48146Y-56185D01*
X48156Y-56215D01*
X48159Y-56246D01*
X48160Y-56250D01*
X51160Y-48250D02*
X51156Y-48281D01*
X51147Y-48310D01*
X51133Y-48338D01*
X51113Y-48362D01*
X51089Y-48382D01*
X51062Y-48397D01*
X51032Y-48406D01*
X51001Y-48409D01*
X50971Y-48407D01*
X50941Y-48398D01*
X50913Y-48383D01*
X50889Y-48364D01*
X50868Y-48340D01*
X50853Y-48313D01*
X50844Y-48283D01*
X50841Y-48252D01*
X50843Y-48222D01*
X50852Y-48192D01*
X50866Y-48164D01*
X50885Y-48139D01*
X50909Y-48119D01*
X50936Y-48104D01*
X50966Y-48094D01*
X50997Y-48091D01*
X51027Y-48093D01*
X51057Y-48101D01*
X51085Y-48115D01*
X51110Y-48135D01*
X51130Y-48158D01*
X51146Y-48185D01*
X51156Y-48215D01*
X51159Y-48246D01*
X51160Y-48250D01*
X51160Y-49250D02*
X51156Y-49281D01*
X51147Y-49310D01*
X51133Y-49338D01*
X51113Y-49362D01*
X51089Y-49382D01*
X51062Y-49397D01*
X51032Y-49406D01*
X51001Y-49409D01*
X50971Y-49407D01*
X50941Y-49398D01*
X50913Y-49383D01*
X50889Y-49364D01*
X50868Y-49340D01*
X50853Y-49313D01*
X50844Y-49283D01*
X50841Y-49252D01*
X50843Y-49222D01*
X50852Y-49192D01*
X50866Y-49164D01*
X50885Y-49139D01*
X50909Y-49119D01*
X50936Y-49104D01*
X50966Y-49094D01*
X50997Y-49091D01*
X51027Y-49093D01*
X51057Y-49101D01*
X51085Y-49115D01*
X51110Y-49135D01*
X51130Y-49158D01*
X51146Y-49185D01*
X51156Y-49215D01*
X51159Y-49246D01*
X51160Y-49250D01*
X51160Y-50250D02*
X51156Y-50281D01*
X51147Y-50310D01*
X51133Y-50338D01*
X51113Y-50362D01*
X51089Y-50382D01*
X51062Y-50397D01*
X51032Y-50406D01*
X51001Y-50409D01*
X50971Y-50407D01*
X50941Y-50398D01*
X50913Y-50383D01*
X50889Y-50364D01*
X50868Y-50340D01*
X50853Y-50313D01*
X50844Y-50283D01*
X50841Y-50252D01*
X50843Y-50222D01*
X50852Y-50192D01*
X50866Y-50164D01*
X50885Y-50139D01*
X50909Y-50119D01*
X50936Y-50104D01*
X50966Y-50094D01*
X50997Y-50091D01*
X51027Y-50093D01*
X51057Y-50101D01*
X51085Y-50115D01*
X51110Y-50135D01*
X51130Y-50158D01*
X51146Y-50185D01*
X51156Y-50215D01*
X51159Y-50246D01*
X51160Y-50250D01*
X51160Y-51250D02*
X51156Y-51281D01*
X51147Y-51310D01*
X51133Y-51338D01*
X51113Y-51362D01*
X51089Y-51382D01*
X51062Y-51397D01*
X51032Y-51406D01*
X51001Y-51409D01*
X50971Y-51407D01*
X50941Y-51398D01*
X50913Y-51383D01*
X50889Y-51364D01*
X50868Y-51340D01*
X50853Y-51313D01*
X50844Y-51283D01*
X50841Y-51252D01*
X50843Y-51222D01*
X50852Y-51192D01*
X50866Y-51164D01*
X50885Y-51139D01*
X50909Y-51119D01*
X50936Y-51104D01*
X50966Y-51094D01*
X50997Y-51091D01*
X51027Y-51093D01*
X51057Y-51101D01*
X51085Y-51115D01*
X51110Y-51135D01*
X51130Y-51158D01*
X51146Y-51185D01*
X51156Y-51215D01*
X51159Y-51246D01*
X51160Y-51250D01*
X51160Y-52250D02*
X51156Y-52281D01*
X51147Y-52310D01*
X51133Y-52338D01*
X51113Y-52362D01*
X51089Y-52382D01*
X51062Y-52397D01*
X51032Y-52406D01*
X51001Y-52409D01*
X50971Y-52407D01*
X50941Y-52398D01*
X50913Y-52383D01*
X50889Y-52364D01*
X50868Y-52340D01*
X50853Y-52313D01*
X50844Y-52283D01*
X50841Y-52252D01*
X50843Y-52222D01*
X50852Y-52192D01*
X50866Y-52164D01*
X50885Y-52139D01*
X50909Y-52119D01*
X50936Y-52104D01*
X50966Y-52094D01*
X50997Y-52091D01*
X51027Y-52093D01*
X51057Y-52101D01*
X51085Y-52115D01*
X51110Y-52135D01*
X51130Y-52158D01*
X51146Y-52185D01*
X51156Y-52215D01*
X51159Y-52246D01*
X51160Y-52250D01*
X51160Y-53250D02*
X51156Y-53281D01*
X51147Y-53310D01*
X51133Y-53338D01*
X51113Y-53362D01*
X51089Y-53382D01*
X51062Y-53397D01*
X51032Y-53406D01*
X51001Y-53409D01*
X50971Y-53407D01*
X50941Y-53398D01*
X50913Y-53383D01*
X50889Y-53364D01*
X50868Y-53340D01*
X50853Y-53313D01*
X50844Y-53283D01*
X50841Y-53252D01*
X50843Y-53222D01*
X50852Y-53192D01*
X50866Y-53164D01*
X50885Y-53139D01*
X50909Y-53119D01*
X50936Y-53104D01*
X50966Y-53094D01*
X50997Y-53091D01*
X51027Y-53093D01*
X51057Y-53101D01*
X51085Y-53115D01*
X51110Y-53135D01*
X51130Y-53158D01*
X51146Y-53185D01*
X51156Y-53215D01*
X51159Y-53246D01*
X51160Y-53250D01*
X51160Y-54250D02*
X51156Y-54281D01*
X51147Y-54310D01*
X51133Y-54338D01*
X51113Y-54362D01*
X51089Y-54382D01*
X51062Y-54397D01*
X51032Y-54406D01*
X51001Y-54409D01*
X50971Y-54407D01*
X50941Y-54398D01*
X50913Y-54383D01*
X50889Y-54364D01*
X50868Y-54340D01*
X50853Y-54313D01*
X50844Y-54283D01*
X50841Y-54252D01*
X50843Y-54222D01*
X50852Y-54192D01*
X50866Y-54164D01*
X50885Y-54139D01*
X50909Y-54119D01*
X50936Y-54104D01*
X50966Y-54094D01*
X50997Y-54091D01*
X51027Y-54093D01*
X51057Y-54101D01*
X51085Y-54115D01*
X51110Y-54135D01*
X51130Y-54158D01*
X51146Y-54185D01*
X51156Y-54215D01*
X51159Y-54246D01*
X51160Y-54250D01*
X51160Y-55250D02*
X51156Y-55281D01*
X51147Y-55310D01*
X51133Y-55338D01*
X51113Y-55362D01*
X51089Y-55382D01*
X51062Y-55397D01*
X51032Y-55406D01*
X51001Y-55409D01*
X50971Y-55407D01*
X50941Y-55398D01*
X50913Y-55383D01*
X50889Y-55364D01*
X50868Y-55340D01*
X50853Y-55313D01*
X50844Y-55283D01*
X50841Y-55252D01*
X50843Y-55222D01*
X50852Y-55192D01*
X50866Y-55164D01*
X50885Y-55139D01*
X50909Y-55119D01*
X50936Y-55104D01*
X50966Y-55094D01*
X50997Y-55091D01*
X51027Y-55093D01*
X51057Y-55101D01*
X51085Y-55115D01*
X51110Y-55135D01*
X51130Y-55158D01*
X51146Y-55185D01*
X51156Y-55215D01*
X51159Y-55246D01*
X51160Y-55250D01*
X51410Y-31750D02*
X51406Y-31781D01*
X51397Y-31810D01*
X51383Y-31838D01*
X51363Y-31862D01*
X51339Y-31882D01*
X51312Y-31897D01*
X51282Y-31906D01*
X51251Y-31909D01*
X51221Y-31907D01*
X51191Y-31898D01*
X51163Y-31883D01*
X51139Y-31864D01*
X51118Y-31840D01*
X51103Y-31813D01*
X51094Y-31783D01*
X51091Y-31752D01*
X51093Y-31722D01*
X51102Y-31692D01*
X51116Y-31664D01*
X51135Y-31639D01*
X51159Y-31619D01*
X51186Y-31604D01*
X51216Y-31594D01*
X51247Y-31591D01*
X51277Y-31593D01*
X51307Y-31601D01*
X51335Y-31615D01*
X51360Y-31635D01*
X51380Y-31658D01*
X51396Y-31685D01*
X51406Y-31715D01*
X51409Y-31746D01*
X51410Y-31750D01*
X52160Y-46750D02*
X52156Y-46781D01*
X52147Y-46810D01*
X52133Y-46838D01*
X52113Y-46862D01*
X52089Y-46882D01*
X52062Y-46897D01*
X52032Y-46906D01*
X52001Y-46909D01*
X51971Y-46907D01*
X51941Y-46898D01*
X51913Y-46883D01*
X51889Y-46864D01*
X51868Y-46840D01*
X51853Y-46813D01*
X51844Y-46783D01*
X51841Y-46752D01*
X51843Y-46722D01*
X51852Y-46692D01*
X51866Y-46664D01*
X51885Y-46639D01*
X51909Y-46619D01*
X51936Y-46604D01*
X51966Y-46594D01*
X51997Y-46591D01*
X52027Y-46593D01*
X52057Y-46601D01*
X52085Y-46615D01*
X52110Y-46635D01*
X52130Y-46658D01*
X52146Y-46685D01*
X52156Y-46715D01*
X52159Y-46746D01*
X52160Y-46750D01*
X52160Y-48750D02*
X52156Y-48781D01*
X52147Y-48810D01*
X52133Y-48838D01*
X52113Y-48862D01*
X52089Y-48882D01*
X52062Y-48897D01*
X52032Y-48906D01*
X52001Y-48909D01*
X51971Y-48907D01*
X51941Y-48898D01*
X51913Y-48883D01*
X51889Y-48864D01*
X51868Y-48840D01*
X51853Y-48813D01*
X51844Y-48783D01*
X51841Y-48752D01*
X51843Y-48722D01*
X51852Y-48692D01*
X51866Y-48664D01*
X51885Y-48639D01*
X51909Y-48619D01*
X51936Y-48604D01*
X51966Y-48594D01*
X51997Y-48591D01*
X52027Y-48593D01*
X52057Y-48601D01*
X52085Y-48615D01*
X52110Y-48635D01*
X52130Y-48658D01*
X52146Y-48685D01*
X52156Y-48715D01*
X52159Y-48746D01*
X52160Y-48750D01*
X52410Y-31750D02*
X52406Y-31781D01*
X52397Y-31810D01*
X52383Y-31838D01*
X52363Y-31862D01*
X52339Y-31882D01*
X52312Y-31897D01*
X52282Y-31906D01*
X52251Y-31909D01*
X52221Y-31907D01*
X52191Y-31898D01*
X52163Y-31883D01*
X52139Y-31864D01*
X52118Y-31840D01*
X52103Y-31813D01*
X52094Y-31783D01*
X52091Y-31752D01*
X52093Y-31722D01*
X52102Y-31692D01*
X52116Y-31664D01*
X52135Y-31639D01*
X52159Y-31619D01*
X52186Y-31604D01*
X52216Y-31594D01*
X52247Y-31591D01*
X52277Y-31593D01*
X52307Y-31601D01*
X52335Y-31615D01*
X52360Y-31635D01*
X52380Y-31658D01*
X52396Y-31685D01*
X52406Y-31715D01*
X52409Y-31746D01*
X52410Y-31750D01*
X53410Y-56750D02*
X53406Y-56781D01*
X53397Y-56810D01*
X53383Y-56838D01*
X53363Y-56862D01*
X53339Y-56882D01*
X53312Y-56897D01*
X53282Y-56906D01*
X53251Y-56909D01*
X53221Y-56907D01*
X53191Y-56898D01*
X53163Y-56883D01*
X53139Y-56864D01*
X53118Y-56840D01*
X53103Y-56813D01*
X53094Y-56783D01*
X53091Y-56752D01*
X53093Y-56722D01*
X53102Y-56692D01*
X53116Y-56664D01*
X53135Y-56639D01*
X53159Y-56619D01*
X53186Y-56604D01*
X53216Y-56594D01*
X53247Y-56591D01*
X53277Y-56593D01*
X53307Y-56601D01*
X53335Y-56615D01*
X53360Y-56635D01*
X53380Y-56658D01*
X53396Y-56685D01*
X53406Y-56715D01*
X53409Y-56746D01*
X53410Y-56750D01*
X54160Y-31750D02*
X54156Y-31781D01*
X54147Y-31810D01*
X54133Y-31838D01*
X54113Y-31862D01*
X54089Y-31882D01*
X54062Y-31897D01*
X54032Y-31906D01*
X54001Y-31909D01*
X53971Y-31907D01*
X53941Y-31898D01*
X53913Y-31883D01*
X53889Y-31864D01*
X53868Y-31840D01*
X53853Y-31813D01*
X53844Y-31783D01*
X53841Y-31752D01*
X53843Y-31722D01*
X53852Y-31692D01*
X53866Y-31664D01*
X53885Y-31639D01*
X53909Y-31619D01*
X53936Y-31604D01*
X53966Y-31594D01*
X53997Y-31591D01*
X54027Y-31593D01*
X54057Y-31601D01*
X54085Y-31615D01*
X54110Y-31635D01*
X54130Y-31658D01*
X54146Y-31685D01*
X54156Y-31715D01*
X54159Y-31746D01*
X54160Y-31750D01*
X55160Y-26250D02*
X55156Y-26281D01*
X55147Y-26310D01*
X55133Y-26338D01*
X55113Y-26362D01*
X55089Y-26382D01*
X55062Y-26397D01*
X55032Y-26406D01*
X55001Y-26409D01*
X54971Y-26407D01*
X54941Y-26398D01*
X54913Y-26383D01*
X54889Y-26364D01*
X54868Y-26340D01*
X54853Y-26313D01*
X54844Y-26283D01*
X54841Y-26252D01*
X54843Y-26222D01*
X54852Y-26192D01*
X54866Y-26164D01*
X54885Y-26139D01*
X54909Y-26119D01*
X54936Y-26104D01*
X54966Y-26094D01*
X54997Y-26091D01*
X55027Y-26093D01*
X55057Y-26101D01*
X55085Y-26115D01*
X55110Y-26135D01*
X55130Y-26158D01*
X55146Y-26185D01*
X55156Y-26215D01*
X55159Y-26246D01*
X55160Y-26250D01*
X55160Y-29250D02*
X55156Y-29281D01*
X55147Y-29310D01*
X55133Y-29338D01*
X55113Y-29362D01*
X55089Y-29382D01*
X55062Y-29397D01*
X55032Y-29406D01*
X55001Y-29409D01*
X54971Y-29407D01*
X54941Y-29398D01*
X54913Y-29383D01*
X54889Y-29364D01*
X54868Y-29340D01*
X54853Y-29313D01*
X54844Y-29283D01*
X54841Y-29252D01*
X54843Y-29222D01*
X54852Y-29192D01*
X54866Y-29164D01*
X54885Y-29139D01*
X54909Y-29119D01*
X54936Y-29104D01*
X54966Y-29094D01*
X54997Y-29091D01*
X55027Y-29093D01*
X55057Y-29101D01*
X55085Y-29115D01*
X55110Y-29135D01*
X55130Y-29158D01*
X55146Y-29185D01*
X55156Y-29215D01*
X55159Y-29246D01*
X55160Y-29250D01*
X55160Y-30750D02*
X55156Y-30781D01*
X55147Y-30810D01*
X55133Y-30838D01*
X55113Y-30862D01*
X55089Y-30882D01*
X55062Y-30897D01*
X55032Y-30906D01*
X55001Y-30909D01*
X54971Y-30907D01*
X54941Y-30898D01*
X54913Y-30883D01*
X54889Y-30864D01*
X54868Y-30840D01*
X54853Y-30813D01*
X54844Y-30783D01*
X54841Y-30752D01*
X54843Y-30722D01*
X54852Y-30692D01*
X54866Y-30664D01*
X54885Y-30639D01*
X54909Y-30619D01*
X54936Y-30604D01*
X54966Y-30594D01*
X54997Y-30591D01*
X55027Y-30593D01*
X55057Y-30601D01*
X55085Y-30615D01*
X55110Y-30635D01*
X55130Y-30658D01*
X55146Y-30685D01*
X55156Y-30715D01*
X55159Y-30746D01*
X55160Y-30750D01*
X55160Y-31750D02*
X55156Y-31781D01*
X55147Y-31810D01*
X55133Y-31838D01*
X55113Y-31862D01*
X55089Y-31882D01*
X55062Y-31897D01*
X55032Y-31906D01*
X55001Y-31909D01*
X54971Y-31907D01*
X54941Y-31898D01*
X54913Y-31883D01*
X54889Y-31864D01*
X54868Y-31840D01*
X54853Y-31813D01*
X54844Y-31783D01*
X54841Y-31752D01*
X54843Y-31722D01*
X54852Y-31692D01*
X54866Y-31664D01*
X54885Y-31639D01*
X54909Y-31619D01*
X54936Y-31604D01*
X54966Y-31594D01*
X54997Y-31591D01*
X55027Y-31593D01*
X55057Y-31601D01*
X55085Y-31615D01*
X55110Y-31635D01*
X55130Y-31658D01*
X55146Y-31685D01*
X55156Y-31715D01*
X55159Y-31746D01*
X55160Y-31750D01*
X56410Y-51250D02*
X56406Y-51281D01*
X56397Y-51310D01*
X56383Y-51338D01*
X56363Y-51362D01*
X56339Y-51382D01*
X56312Y-51397D01*
X56282Y-51406D01*
X56251Y-51409D01*
X56221Y-51407D01*
X56191Y-51398D01*
X56163Y-51383D01*
X56139Y-51364D01*
X56118Y-51340D01*
X56103Y-51313D01*
X56094Y-51283D01*
X56091Y-51252D01*
X56093Y-51222D01*
X56102Y-51192D01*
X56116Y-51164D01*
X56135Y-51139D01*
X56159Y-51119D01*
X56186Y-51104D01*
X56216Y-51094D01*
X56247Y-51091D01*
X56277Y-51093D01*
X56307Y-51101D01*
X56335Y-51115D01*
X56360Y-51135D01*
X56380Y-51158D01*
X56396Y-51185D01*
X56406Y-51215D01*
X56409Y-51246D01*
X56410Y-51250D01*
X56410Y-54250D02*
X56406Y-54281D01*
X56397Y-54310D01*
X56383Y-54338D01*
X56363Y-54362D01*
X56339Y-54382D01*
X56312Y-54397D01*
X56282Y-54406D01*
X56251Y-54409D01*
X56221Y-54407D01*
X56191Y-54398D01*
X56163Y-54383D01*
X56139Y-54364D01*
X56118Y-54340D01*
X56103Y-54313D01*
X56094Y-54283D01*
X56091Y-54252D01*
X56093Y-54222D01*
X56102Y-54192D01*
X56116Y-54164D01*
X56135Y-54139D01*
X56159Y-54119D01*
X56186Y-54104D01*
X56216Y-54094D01*
X56247Y-54091D01*
X56277Y-54093D01*
X56307Y-54101D01*
X56335Y-54115D01*
X56360Y-54135D01*
X56380Y-54158D01*
X56396Y-54185D01*
X56406Y-54215D01*
X56409Y-54246D01*
X56410Y-54250D01*
X56410Y-56750D02*
X56406Y-56781D01*
X56397Y-56810D01*
X56383Y-56838D01*
X56363Y-56862D01*
X56339Y-56882D01*
X56312Y-56897D01*
X56282Y-56906D01*
X56251Y-56909D01*
X56221Y-56907D01*
X56191Y-56898D01*
X56163Y-56883D01*
X56139Y-56864D01*
X56118Y-56840D01*
X56103Y-56813D01*
X56094Y-56783D01*
X56091Y-56752D01*
X56093Y-56722D01*
X56102Y-56692D01*
X56116Y-56664D01*
X56135Y-56639D01*
X56159Y-56619D01*
X56186Y-56604D01*
X56216Y-56594D01*
X56247Y-56591D01*
X56277Y-56593D01*
X56307Y-56601D01*
X56335Y-56615D01*
X56360Y-56635D01*
X56380Y-56658D01*
X56396Y-56685D01*
X56406Y-56715D01*
X56409Y-56746D01*
X56410Y-56750D01*
X57660Y-56000D02*
X57656Y-56031D01*
X57647Y-56060D01*
X57633Y-56088D01*
X57613Y-56112D01*
X57589Y-56132D01*
X57562Y-56147D01*
X57532Y-56156D01*
X57501Y-56159D01*
X57471Y-56157D01*
X57441Y-56148D01*
X57413Y-56133D01*
X57389Y-56114D01*
X57368Y-56090D01*
X57353Y-56063D01*
X57344Y-56033D01*
X57341Y-56002D01*
X57343Y-55972D01*
X57352Y-55942D01*
X57366Y-55914D01*
X57385Y-55889D01*
X57409Y-55869D01*
X57436Y-55854D01*
X57466Y-55844D01*
X57497Y-55841D01*
X57527Y-55843D01*
X57557Y-55851D01*
X57585Y-55865D01*
X57610Y-55885D01*
X57630Y-55908D01*
X57646Y-55935D01*
X57656Y-55965D01*
X57659Y-55996D01*
X57660Y-56000D01*
X58160Y-26250D02*
X58156Y-26281D01*
X58147Y-26310D01*
X58133Y-26338D01*
X58113Y-26362D01*
X58089Y-26382D01*
X58062Y-26397D01*
X58032Y-26406D01*
X58001Y-26409D01*
X57971Y-26407D01*
X57941Y-26398D01*
X57913Y-26383D01*
X57889Y-26364D01*
X57868Y-26340D01*
X57853Y-26313D01*
X57844Y-26283D01*
X57841Y-26252D01*
X57843Y-26222D01*
X57852Y-26192D01*
X57866Y-26164D01*
X57885Y-26139D01*
X57909Y-26119D01*
X57936Y-26104D01*
X57966Y-26094D01*
X57997Y-26091D01*
X58027Y-26093D01*
X58057Y-26101D01*
X58085Y-26115D01*
X58110Y-26135D01*
X58130Y-26158D01*
X58146Y-26185D01*
X58156Y-26215D01*
X58159Y-26246D01*
X58160Y-26250D01*
X58160Y-29250D02*
X58156Y-29281D01*
X58147Y-29310D01*
X58133Y-29338D01*
X58113Y-29362D01*
X58089Y-29382D01*
X58062Y-29397D01*
X58032Y-29406D01*
X58001Y-29409D01*
X57971Y-29407D01*
X57941Y-29398D01*
X57913Y-29383D01*
X57889Y-29364D01*
X57868Y-29340D01*
X57853Y-29313D01*
X57844Y-29283D01*
X57841Y-29252D01*
X57843Y-29222D01*
X57852Y-29192D01*
X57866Y-29164D01*
X57885Y-29139D01*
X57909Y-29119D01*
X57936Y-29104D01*
X57966Y-29094D01*
X57997Y-29091D01*
X58027Y-29093D01*
X58057Y-29101D01*
X58085Y-29115D01*
X58110Y-29135D01*
X58130Y-29158D01*
X58146Y-29185D01*
X58156Y-29215D01*
X58159Y-29246D01*
X58160Y-29250D01*
X58660Y-55000D02*
X58656Y-55031D01*
X58647Y-55060D01*
X58633Y-55088D01*
X58613Y-55112D01*
X58589Y-55132D01*
X58562Y-55147D01*
X58532Y-55156D01*
X58501Y-55159D01*
X58471Y-55157D01*
X58441Y-55148D01*
X58413Y-55133D01*
X58389Y-55114D01*
X58368Y-55090D01*
X58353Y-55063D01*
X58344Y-55033D01*
X58341Y-55002D01*
X58343Y-54972D01*
X58352Y-54942D01*
X58366Y-54914D01*
X58385Y-54889D01*
X58409Y-54869D01*
X58436Y-54854D01*
X58466Y-54844D01*
X58497Y-54841D01*
X58527Y-54843D01*
X58557Y-54851D01*
X58585Y-54865D01*
X58610Y-54885D01*
X58630Y-54908D01*
X58646Y-54935D01*
X58656Y-54965D01*
X58659Y-54996D01*
X58660Y-55000D01*
X58660Y-56000D02*
X58656Y-56031D01*
X58647Y-56060D01*
X58633Y-56088D01*
X58613Y-56112D01*
X58589Y-56132D01*
X58562Y-56147D01*
X58532Y-56156D01*
X58501Y-56159D01*
X58471Y-56157D01*
X58441Y-56148D01*
X58413Y-56133D01*
X58389Y-56114D01*
X58368Y-56090D01*
X58353Y-56063D01*
X58344Y-56033D01*
X58341Y-56002D01*
X58343Y-55972D01*
X58352Y-55942D01*
X58366Y-55914D01*
X58385Y-55889D01*
X58409Y-55869D01*
X58436Y-55854D01*
X58466Y-55844D01*
X58497Y-55841D01*
X58527Y-55843D01*
X58557Y-55851D01*
X58585Y-55865D01*
X58610Y-55885D01*
X58630Y-55908D01*
X58646Y-55935D01*
X58656Y-55965D01*
X58659Y-55996D01*
X58660Y-56000D01*
X59160Y-26250D02*
X59156Y-26281D01*
X59147Y-26310D01*
X59133Y-26338D01*
X59113Y-26362D01*
X59089Y-26382D01*
X59062Y-26397D01*
X59032Y-26406D01*
X59001Y-26409D01*
X58971Y-26407D01*
X58941Y-26398D01*
X58913Y-26383D01*
X58889Y-26364D01*
X58868Y-26340D01*
X58853Y-26313D01*
X58844Y-26283D01*
X58841Y-26252D01*
X58843Y-26222D01*
X58852Y-26192D01*
X58866Y-26164D01*
X58885Y-26139D01*
X58909Y-26119D01*
X58936Y-26104D01*
X58966Y-26094D01*
X58997Y-26091D01*
X59027Y-26093D01*
X59057Y-26101D01*
X59085Y-26115D01*
X59110Y-26135D01*
X59130Y-26158D01*
X59146Y-26185D01*
X59156Y-26215D01*
X59159Y-26246D01*
X59160Y-26250D01*
X59160Y-29250D02*
X59156Y-29281D01*
X59147Y-29310D01*
X59133Y-29338D01*
X59113Y-29362D01*
X59089Y-29382D01*
X59062Y-29397D01*
X59032Y-29406D01*
X59001Y-29409D01*
X58971Y-29407D01*
X58941Y-29398D01*
X58913Y-29383D01*
X58889Y-29364D01*
X58868Y-29340D01*
X58853Y-29313D01*
X58844Y-29283D01*
X58841Y-29252D01*
X58843Y-29222D01*
X58852Y-29192D01*
X58866Y-29164D01*
X58885Y-29139D01*
X58909Y-29119D01*
X58936Y-29104D01*
X58966Y-29094D01*
X58997Y-29091D01*
X59027Y-29093D01*
X59057Y-29101D01*
X59085Y-29115D01*
X59110Y-29135D01*
X59130Y-29158D01*
X59146Y-29185D01*
X59156Y-29215D01*
X59159Y-29246D01*
X59160Y-29250D01*
X60160Y-26250D02*
X60156Y-26281D01*
X60147Y-26310D01*
X60133Y-26338D01*
X60113Y-26362D01*
X60089Y-26382D01*
X60062Y-26397D01*
X60032Y-26406D01*
X60001Y-26409D01*
X59971Y-26407D01*
X59941Y-26398D01*
X59913Y-26383D01*
X59889Y-26364D01*
X59868Y-26340D01*
X59853Y-26313D01*
X59844Y-26283D01*
X59841Y-26252D01*
X59843Y-26222D01*
X59852Y-26192D01*
X59866Y-26164D01*
X59885Y-26139D01*
X59909Y-26119D01*
X59936Y-26104D01*
X59966Y-26094D01*
X59997Y-26091D01*
X60027Y-26093D01*
X60057Y-26101D01*
X60085Y-26115D01*
X60110Y-26135D01*
X60130Y-26158D01*
X60146Y-26185D01*
X60156Y-26215D01*
X60159Y-26246D01*
X60160Y-26250D01*
X60160Y-29250D02*
X60156Y-29281D01*
X60147Y-29310D01*
X60133Y-29338D01*
X60113Y-29362D01*
X60089Y-29382D01*
X60062Y-29397D01*
X60032Y-29406D01*
X60001Y-29409D01*
X59971Y-29407D01*
X59941Y-29398D01*
X59913Y-29383D01*
X59889Y-29364D01*
X59868Y-29340D01*
X59853Y-29313D01*
X59844Y-29283D01*
X59841Y-29252D01*
X59843Y-29222D01*
X59852Y-29192D01*
X59866Y-29164D01*
X59885Y-29139D01*
X59909Y-29119D01*
X59936Y-29104D01*
X59966Y-29094D01*
X59997Y-29091D01*
X60027Y-29093D01*
X60057Y-29101D01*
X60085Y-29115D01*
X60110Y-29135D01*
X60130Y-29158D01*
X60146Y-29185D01*
X60156Y-29215D01*
X60159Y-29246D01*
X60160Y-29250D01*
X61160Y-26250D02*
X61156Y-26281D01*
X61147Y-26310D01*
X61133Y-26338D01*
X61113Y-26362D01*
X61089Y-26382D01*
X61062Y-26397D01*
X61032Y-26406D01*
X61001Y-26409D01*
X60971Y-26407D01*
X60941Y-26398D01*
X60913Y-26383D01*
X60889Y-26364D01*
X60868Y-26340D01*
X60853Y-26313D01*
X60844Y-26283D01*
X60841Y-26252D01*
X60843Y-26222D01*
X60852Y-26192D01*
X60866Y-26164D01*
X60885Y-26139D01*
X60909Y-26119D01*
X60936Y-26104D01*
X60966Y-26094D01*
X60997Y-26091D01*
X61027Y-26093D01*
X61057Y-26101D01*
X61085Y-26115D01*
X61110Y-26135D01*
X61130Y-26158D01*
X61146Y-26185D01*
X61156Y-26215D01*
X61159Y-26246D01*
X61160Y-26250D01*
X61160Y-29250D02*
X61156Y-29281D01*
X61147Y-29310D01*
X61133Y-29338D01*
X61113Y-29362D01*
X61089Y-29382D01*
X61062Y-29397D01*
X61032Y-29406D01*
X61001Y-29409D01*
X60971Y-29407D01*
X60941Y-29398D01*
X60913Y-29383D01*
X60889Y-29364D01*
X60868Y-29340D01*
X60853Y-29313D01*
X60844Y-29283D01*
X60841Y-29252D01*
X60843Y-29222D01*
X60852Y-29192D01*
X60866Y-29164D01*
X60885Y-29139D01*
X60909Y-29119D01*
X60936Y-29104D01*
X60966Y-29094D01*
X60997Y-29091D01*
X61027Y-29093D01*
X61057Y-29101D01*
X61085Y-29115D01*
X61110Y-29135D01*
X61130Y-29158D01*
X61146Y-29185D01*
X61156Y-29215D01*
X61159Y-29246D01*
X61160Y-29250D01*
X68910Y-23250D02*
X68906Y-23281D01*
X68897Y-23310D01*
X68883Y-23338D01*
X68863Y-23362D01*
X68839Y-23382D01*
X68812Y-23397D01*
X68782Y-23406D01*
X68751Y-23409D01*
X68721Y-23407D01*
X68691Y-23398D01*
X68663Y-23383D01*
X68639Y-23364D01*
X68618Y-23340D01*
X68603Y-23313D01*
X68594Y-23283D01*
X68591Y-23252D01*
X68593Y-23222D01*
X68602Y-23192D01*
X68616Y-23164D01*
X68635Y-23139D01*
X68659Y-23119D01*
X68686Y-23104D01*
X68716Y-23094D01*
X68747Y-23091D01*
X68777Y-23093D01*
X68807Y-23101D01*
X68835Y-23115D01*
X68860Y-23135D01*
X68880Y-23158D01*
X68896Y-23185D01*
X68906Y-23215D01*
X68909Y-23246D01*
X68910Y-23250D01*
X68910Y-25250D02*
X68906Y-25281D01*
X68897Y-25310D01*
X68883Y-25338D01*
X68863Y-25362D01*
X68839Y-25382D01*
X68812Y-25397D01*
X68782Y-25406D01*
X68751Y-25409D01*
X68721Y-25407D01*
X68691Y-25398D01*
X68663Y-25383D01*
X68639Y-25364D01*
X68618Y-25340D01*
X68603Y-25313D01*
X68594Y-25283D01*
X68591Y-25252D01*
X68593Y-25222D01*
X68602Y-25192D01*
X68616Y-25164D01*
X68635Y-25139D01*
X68659Y-25119D01*
X68686Y-25104D01*
X68716Y-25094D01*
X68747Y-25091D01*
X68777Y-25093D01*
X68807Y-25101D01*
X68835Y-25115D01*
X68860Y-25135D01*
X68880Y-25158D01*
X68896Y-25185D01*
X68906Y-25215D01*
X68909Y-25246D01*
X68910Y-25250D01*
X69910Y-24250D02*
X69906Y-24281D01*
X69897Y-24310D01*
X69883Y-24338D01*
X69863Y-24362D01*
X69839Y-24382D01*
X69812Y-24397D01*
X69782Y-24406D01*
X69751Y-24409D01*
X69721Y-24407D01*
X69691Y-24398D01*
X69663Y-24383D01*
X69639Y-24364D01*
X69618Y-24340D01*
X69603Y-24313D01*
X69594Y-24283D01*
X69591Y-24252D01*
X69593Y-24222D01*
X69602Y-24192D01*
X69616Y-24164D01*
X69635Y-24139D01*
X69659Y-24119D01*
X69686Y-24104D01*
X69716Y-24094D01*
X69747Y-24091D01*
X69777Y-24093D01*
X69807Y-24101D01*
X69835Y-24115D01*
X69860Y-24135D01*
X69880Y-24158D01*
X69896Y-24185D01*
X69906Y-24215D01*
X69909Y-24246D01*
X69910Y-24250D01*
X43500Y-21050D02*
X43500Y-21450D01*
X43700Y-21250D02*
X43300Y-21250D01*
X44500Y-21050D02*
X44500Y-21450D01*
X44700Y-21250D02*
X44300Y-21250D01*
X45000Y-39550D02*
X45000Y-39950D01*
X45200Y-39750D02*
X44800Y-39750D01*
X45000Y-41550D02*
X45000Y-41950D01*
X45200Y-41750D02*
X44800Y-41750D01*
X45500Y-21050D02*
X45500Y-21450D01*
X45700Y-21250D02*
X45300Y-21250D01*
X45500Y-36050D02*
X45500Y-36450D01*
X45700Y-36250D02*
X45300Y-36250D01*
X46500Y-21050D02*
X46500Y-21450D01*
X46700Y-21250D02*
X46300Y-21250D01*
X46500Y-36050D02*
X46500Y-36450D01*
X46700Y-36250D02*
X46300Y-36250D01*
X47000Y-39550D02*
X47000Y-39950D01*
X47200Y-39750D02*
X46800Y-39750D01*
X47000Y-41550D02*
X47000Y-41950D01*
X47200Y-41750D02*
X46800Y-41750D01*
X47500Y-21050D02*
X47500Y-21450D01*
X47700Y-21250D02*
X47300Y-21250D01*
X48500Y-21050D02*
X48500Y-21450D01*
X48700Y-21250D02*
X48300Y-21250D01*
X48500Y-30050D02*
X48500Y-30450D01*
X48700Y-30250D02*
X48300Y-30250D01*
X48500Y-34050D02*
X48500Y-34450D01*
X48700Y-34250D02*
X48300Y-34250D01*
X49400Y-23050D02*
X49400Y-23450D01*
X49600Y-23250D02*
X49200Y-23250D01*
X49500Y-21050D02*
X49500Y-21450D01*
X49700Y-21250D02*
X49300Y-21250D01*
X50400Y-23050D02*
X50400Y-23450D01*
X50600Y-23250D02*
X50200Y-23250D01*
X50500Y-21050D02*
X50500Y-21450D01*
X50700Y-21250D02*
X50300Y-21250D01*
X50750Y-39550D02*
X50750Y-39950D01*
X50950Y-39750D02*
X50550Y-39750D01*
X50750Y-41550D02*
X50750Y-41950D01*
X50950Y-41750D02*
X50550Y-41750D01*
X51000Y-35550D02*
X51000Y-35950D01*
X51200Y-35750D02*
X50800Y-35750D01*
X51000Y-36550D02*
X51000Y-36950D01*
X51200Y-36750D02*
X50800Y-36750D01*
X51400Y-23050D02*
X51400Y-23450D01*
X51600Y-23250D02*
X51200Y-23250D01*
X51500Y-21050D02*
X51500Y-21450D01*
X51700Y-21250D02*
X51300Y-21250D01*
X52400Y-23050D02*
X52400Y-23450D01*
X52600Y-23250D02*
X52200Y-23250D01*
X52500Y-21050D02*
X52500Y-21450D01*
X52700Y-21250D02*
X52300Y-21250D01*
X53000Y-35550D02*
X53000Y-35950D01*
X53200Y-35750D02*
X52800Y-35750D01*
X53000Y-36550D02*
X53000Y-36950D01*
X53200Y-36750D02*
X52800Y-36750D01*
X53000Y-42050D02*
X53000Y-42450D01*
X53200Y-42250D02*
X52800Y-42250D01*
X53400Y-23050D02*
X53400Y-23450D01*
X53600Y-23250D02*
X53200Y-23250D01*
X53500Y-21050D02*
X53500Y-21450D01*
X53700Y-21250D02*
X53300Y-21250D01*
X53500Y-48050D02*
X53500Y-48450D01*
X53700Y-48250D02*
X53300Y-48250D01*
X53500Y-49050D02*
X53500Y-49450D01*
X53700Y-49250D02*
X53300Y-49250D01*
X53500Y-50050D02*
X53500Y-50450D01*
X53700Y-50250D02*
X53300Y-50250D01*
X53500Y-51050D02*
X53500Y-51450D01*
X53700Y-51250D02*
X53300Y-51250D01*
X53500Y-52050D02*
X53500Y-52450D01*
X53700Y-52250D02*
X53300Y-52250D01*
X53500Y-53050D02*
X53500Y-53450D01*
X53700Y-53250D02*
X53300Y-53250D01*
X53500Y-54050D02*
X53500Y-54450D01*
X53700Y-54250D02*
X53300Y-54250D01*
X53500Y-55050D02*
X53500Y-55450D01*
X53700Y-55250D02*
X53300Y-55250D01*
X54000Y-42050D02*
X54000Y-42450D01*
X54200Y-42250D02*
X53800Y-42250D01*
X54400Y-23050D02*
X54400Y-23450D01*
X54600Y-23250D02*
X54200Y-23250D01*
X54500Y-21050D02*
X54500Y-21450D01*
X54700Y-21250D02*
X54300Y-21250D01*
X54500Y-48050D02*
X54500Y-48450D01*
X54700Y-48250D02*
X54300Y-48250D01*
X54500Y-49050D02*
X54500Y-49450D01*
X54700Y-49250D02*
X54300Y-49250D01*
X54500Y-50050D02*
X54500Y-50450D01*
X54700Y-50250D02*
X54300Y-50250D01*
X54500Y-51050D02*
X54500Y-51450D01*
X54700Y-51250D02*
X54300Y-51250D01*
X54500Y-52050D02*
X54500Y-52450D01*
X54700Y-52250D02*
X54300Y-52250D01*
X54500Y-53050D02*
X54500Y-53450D01*
X54700Y-53250D02*
X54300Y-53250D01*
X54500Y-54050D02*
X54500Y-54450D01*
X54700Y-54250D02*
X54300Y-54250D01*
X54500Y-55050D02*
X54500Y-55450D01*
X54700Y-55250D02*
X54300Y-55250D01*
X55000Y-35550D02*
X55000Y-35950D01*
X55200Y-35750D02*
X54800Y-35750D01*
X55000Y-36550D02*
X55000Y-36950D01*
X55200Y-36750D02*
X54800Y-36750D01*
X55000Y-42050D02*
X55000Y-42450D01*
X55200Y-42250D02*
X54800Y-42250D01*
X55400Y-23050D02*
X55400Y-23450D01*
X55600Y-23250D02*
X55200Y-23250D01*
X55500Y-21050D02*
X55500Y-21450D01*
X55700Y-21250D02*
X55300Y-21250D01*
X56000Y-42050D02*
X56000Y-42450D01*
X56200Y-42250D02*
X55800Y-42250D01*
X56250Y-48050D02*
X56250Y-48450D01*
X56450Y-48250D02*
X56050Y-48250D01*
X56250Y-49050D02*
X56250Y-49450D01*
X56450Y-49250D02*
X56050Y-49250D01*
X56250Y-50050D02*
X56250Y-50450D01*
X56450Y-50250D02*
X56050Y-50250D01*
X56400Y-23050D02*
X56400Y-23450D01*
X56600Y-23250D02*
X56200Y-23250D01*
X56500Y-21050D02*
X56500Y-21450D01*
X56700Y-21250D02*
X56300Y-21250D01*
X57000Y-35550D02*
X57000Y-35950D01*
X57200Y-35750D02*
X56800Y-35750D01*
X57000Y-36550D02*
X57000Y-36950D01*
X57200Y-36750D02*
X56800Y-36750D01*
X57000Y-40050D02*
X57000Y-40450D01*
X57200Y-40250D02*
X56800Y-40250D01*
X57000Y-42050D02*
X57000Y-42450D01*
X57200Y-42250D02*
X56800Y-42250D01*
X57250Y-51050D02*
X57250Y-51450D01*
X57450Y-51250D02*
X57050Y-51250D01*
X57250Y-54050D02*
X57250Y-54450D01*
X57450Y-54250D02*
X57050Y-54250D01*
X57500Y-21050D02*
X57500Y-21450D01*
X57700Y-21250D02*
X57300Y-21250D01*
X57750Y-49550D02*
X57750Y-49950D01*
X57950Y-49750D02*
X57550Y-49750D01*
X58000Y-23050D02*
X58000Y-23450D01*
X58200Y-23250D02*
X57800Y-23250D01*
X58000Y-40050D02*
X58000Y-40450D01*
X58200Y-40250D02*
X57800Y-40250D01*
X58000Y-42050D02*
X58000Y-42450D01*
X58200Y-42250D02*
X57800Y-42250D01*
X58500Y-21050D02*
X58500Y-21450D01*
X58700Y-21250D02*
X58300Y-21250D01*
X58750Y-49550D02*
X58750Y-49950D01*
X58950Y-49750D02*
X58550Y-49750D01*
X58750Y-51050D02*
X58750Y-51450D01*
X58950Y-51250D02*
X58550Y-51250D01*
X58750Y-52050D02*
X58750Y-52450D01*
X58950Y-52250D02*
X58550Y-52250D01*
X59000Y-23050D02*
X59000Y-23450D01*
X59200Y-23250D02*
X58800Y-23250D01*
X59000Y-40050D02*
X59000Y-40450D01*
X59200Y-40250D02*
X58800Y-40250D01*
X59500Y-35550D02*
X59500Y-35950D01*
X59700Y-35750D02*
X59300Y-35750D01*
X59500Y-36550D02*
X59500Y-36950D01*
X59700Y-36750D02*
X59300Y-36750D01*
X60000Y-23050D02*
X60000Y-23450D01*
X60200Y-23250D02*
X59800Y-23250D01*
X60000Y-40050D02*
X60000Y-40450D01*
X60200Y-40250D02*
X59800Y-40250D01*
X60000Y-42050D02*
X60000Y-42450D01*
X60200Y-42250D02*
X59800Y-42250D01*
X61000Y-23050D02*
X61000Y-23450D01*
X61200Y-23250D02*
X60800Y-23250D01*
X61000Y-40050D02*
X61000Y-40450D01*
X61200Y-40250D02*
X60800Y-40250D01*
X61000Y-42050D02*
X61000Y-42450D01*
X61200Y-42250D02*
X60800Y-42250D01*
X62000Y-23050D02*
X62000Y-23450D01*
X62200Y-23250D02*
X61800Y-23250D01*
X62000Y-35550D02*
X62000Y-35950D01*
X62200Y-35750D02*
X61800Y-35750D01*
X62000Y-36550D02*
X62000Y-36950D01*
X62200Y-36750D02*
X61800Y-36750D01*
X62000Y-40050D02*
X62000Y-40450D01*
X62200Y-40250D02*
X61800Y-40250D01*
X62000Y-42050D02*
X62000Y-42450D01*
X62200Y-42250D02*
X61800Y-42250D01*
X63000Y-23050D02*
X63000Y-23450D01*
X63200Y-23250D02*
X62800Y-23250D01*
X63000Y-35550D02*
X63000Y-35950D01*
X63200Y-35750D02*
X62800Y-35750D01*
X63000Y-36550D02*
X63000Y-36950D01*
X63200Y-36750D02*
X62800Y-36750D01*
X63000Y-40050D02*
X63000Y-40450D01*
X63200Y-40250D02*
X62800Y-40250D01*
X63000Y-42050D02*
X63000Y-42450D01*
X63200Y-42250D02*
X62800Y-42250D01*
X64000Y-23050D02*
X64000Y-23450D01*
X64200Y-23250D02*
X63800Y-23250D01*
X64000Y-35550D02*
X64000Y-35950D01*
X64200Y-35750D02*
X63800Y-35750D01*
X64000Y-36550D02*
X64000Y-36950D01*
X64200Y-36750D02*
X63800Y-36750D01*
X64000Y-40050D02*
X64000Y-40450D01*
X64200Y-40250D02*
X63800Y-40250D01*
X64000Y-42050D02*
X64000Y-42450D01*
X64200Y-42250D02*
X63800Y-42250D01*
X65000Y-23050D02*
X65000Y-23450D01*
X65200Y-23250D02*
X64800Y-23250D01*
X65000Y-35550D02*
X65000Y-35950D01*
X65200Y-35750D02*
X64800Y-35750D01*
X65000Y-36550D02*
X65000Y-36950D01*
X65200Y-36750D02*
X64800Y-36750D01*
X65000Y-42050D02*
X65000Y-42450D01*
X65200Y-42250D02*
X64800Y-42250D01*
X68000Y-50550D02*
X68000Y-50950D01*
X68200Y-50750D02*
X67800Y-50750D01*
X68000Y-52550D02*
X68000Y-52950D01*
X68200Y-52750D02*
X67800Y-52750D01*
X68000Y-53550D02*
X68000Y-53950D01*
X68200Y-53750D02*
X67800Y-53750D01*
X68000Y-55550D02*
X68000Y-55950D01*
X68200Y-55750D02*
X67800Y-55750D01*
X69000Y-52550D02*
X69000Y-52950D01*
X69200Y-52750D02*
X68800Y-52750D01*
X69000Y-53550D02*
X69000Y-53950D01*
X69200Y-53750D02*
X68800Y-53750D01*
X69000Y-55550D02*
X69000Y-55950D01*
X69200Y-55750D02*
X68800Y-55750D01*
X69500Y-39050D02*
X69500Y-39450D01*
X69700Y-39250D02*
X69300Y-39250D01*
X69500Y-40050D02*
X69500Y-40450D01*
X69700Y-40250D02*
X69300Y-40250D01*
X69500Y-41050D02*
X69500Y-41450D01*
X69700Y-41250D02*
X69300Y-41250D01*
X70000Y-50550D02*
X70000Y-50950D01*
X70200Y-50750D02*
X69800Y-50750D01*
X70000Y-52550D02*
X70000Y-52950D01*
X70200Y-52750D02*
X69800Y-52750D01*
X70000Y-53550D02*
X70000Y-53950D01*
X70200Y-53750D02*
X69800Y-53750D01*
X70000Y-55550D02*
X70000Y-55950D01*
X70200Y-55750D02*
X69800Y-55750D01*
X70500Y-39050D02*
X70500Y-39450D01*
X70700Y-39250D02*
X70300Y-39250D01*
X70500Y-40050D02*
X70500Y-40450D01*
X70700Y-40250D02*
X70300Y-40250D01*
X70500Y-41050D02*
X70500Y-41450D01*
X70700Y-41250D02*
X70300Y-41250D01*
X66000Y-53250D02*
X65990Y-53347D01*
X65962Y-53440D01*
X65916Y-53526D01*
X65854Y-53602D01*
X65779Y-53664D01*
X65693Y-53710D01*
X65600Y-53739D01*
X65503Y-53749D01*
X65407Y-53741D01*
X65313Y-53713D01*
X65227Y-53668D01*
X65151Y-53607D01*
X65088Y-53532D01*
X65041Y-53446D01*
X65011Y-53353D01*
X65001Y-53256D01*
X65009Y-53160D01*
X65036Y-53066D01*
X65080Y-52980D01*
X65141Y-52903D01*
X65215Y-52840D01*
X65300Y-52792D01*
X65393Y-52762D01*
X65490Y-52751D01*
X65586Y-52758D01*
X65680Y-52784D01*
X65767Y-52828D01*
X65844Y-52888D01*
X65908Y-52962D01*
X65956Y-53047D01*
X65987Y-53140D01*
X65999Y-53237D01*
X66000Y-53250D01*
X65000Y-52750D02*
X66000Y-53750D01*
X66000Y-52750D02*
X65000Y-53750D01*
X73000Y-53250D02*
X72990Y-53347D01*
X72962Y-53440D01*
X72916Y-53526D01*
X72854Y-53602D01*
X72779Y-53664D01*
X72693Y-53710D01*
X72600Y-53739D01*
X72503Y-53749D01*
X72407Y-53741D01*
X72313Y-53713D01*
X72227Y-53668D01*
X72151Y-53607D01*
X72088Y-53532D01*
X72041Y-53446D01*
X72011Y-53353D01*
X72001Y-53256D01*
X72009Y-53160D01*
X72036Y-53066D01*
X72080Y-52980D01*
X72141Y-52903D01*
X72215Y-52840D01*
X72300Y-52792D01*
X72393Y-52762D01*
X72490Y-52751D01*
X72586Y-52758D01*
X72680Y-52784D01*
X72767Y-52828D01*
X72844Y-52888D01*
X72908Y-52962D01*
X72956Y-53047D01*
X72987Y-53140D01*
X72999Y-53237D01*
X73000Y-53250D01*
X72000Y-52750D02*
X73000Y-53750D01*
X73000Y-52750D02*
X72000Y-53750D01*
X41950Y-21250D02*
X41938Y-21366D01*
X41904Y-21478D01*
X41849Y-21582D01*
X41775Y-21672D01*
X41685Y-21747D01*
X41582Y-21803D01*
X41470Y-21837D01*
X41354Y-21849D01*
X41238Y-21839D01*
X41126Y-21806D01*
X41022Y-21752D01*
X40931Y-21678D01*
X40855Y-21588D01*
X40799Y-21486D01*
X40764Y-21374D01*
X40751Y-21258D01*
X40760Y-21142D01*
X40793Y-21030D01*
X40846Y-20925D01*
X40919Y-20834D01*
X41008Y-20758D01*
X41110Y-20701D01*
X41222Y-20664D01*
X41338Y-20651D01*
X41454Y-20660D01*
X41566Y-20691D01*
X41671Y-20744D01*
X41763Y-20816D01*
X41840Y-20905D01*
X41898Y-21006D01*
X41935Y-21118D01*
X41949Y-21234D01*
X41950Y-21250D01*
X40750Y-21250D02*
X41950Y-21250D01*
X41950Y-33450D02*
X41938Y-33566D01*
X41904Y-33678D01*
X41849Y-33782D01*
X41775Y-33872D01*
X41685Y-33947D01*
X41582Y-34003D01*
X41470Y-34037D01*
X41354Y-34049D01*
X41238Y-34039D01*
X41126Y-34006D01*
X41022Y-33952D01*
X40931Y-33878D01*
X40855Y-33788D01*
X40799Y-33686D01*
X40764Y-33574D01*
X40751Y-33458D01*
X40760Y-33342D01*
X40793Y-33230D01*
X40846Y-33125D01*
X40919Y-33034D01*
X41008Y-32958D01*
X41110Y-32901D01*
X41222Y-32864D01*
X41338Y-32851D01*
X41454Y-32860D01*
X41566Y-32891D01*
X41671Y-32944D01*
X41763Y-33016D01*
X41840Y-33105D01*
X41898Y-33206D01*
X41935Y-33318D01*
X41949Y-33434D01*
X41950Y-33450D01*
X40750Y-33450D02*
X41950Y-33450D01*
X45350Y-56500D02*
X45338Y-56616D01*
X45304Y-56728D01*
X45249Y-56832D01*
X45175Y-56922D01*
X45085Y-56997D01*
X44982Y-57053D01*
X44870Y-57087D01*
X44754Y-57099D01*
X44638Y-57089D01*
X44526Y-57056D01*
X44422Y-57002D01*
X44331Y-56928D01*
X44255Y-56838D01*
X44199Y-56736D01*
X44164Y-56624D01*
X44151Y-56508D01*
X44160Y-56392D01*
X44193Y-56280D01*
X44246Y-56175D01*
X44319Y-56084D01*
X44408Y-56008D01*
X44510Y-55951D01*
X44622Y-55914D01*
X44738Y-55901D01*
X44854Y-55910D01*
X44966Y-55941D01*
X45071Y-55994D01*
X45163Y-56066D01*
X45240Y-56155D01*
X45298Y-56256D01*
X45335Y-56368D01*
X45349Y-56484D01*
X45350Y-56500D01*
X44150Y-56500D02*
X45350Y-56500D01*
X46600Y-23250D02*
X46588Y-23366D01*
X46554Y-23478D01*
X46499Y-23582D01*
X46425Y-23672D01*
X46335Y-23747D01*
X46232Y-23803D01*
X46120Y-23837D01*
X46004Y-23849D01*
X45888Y-23839D01*
X45776Y-23806D01*
X45672Y-23752D01*
X45581Y-23678D01*
X45505Y-23588D01*
X45449Y-23486D01*
X45414Y-23374D01*
X45401Y-23258D01*
X45410Y-23142D01*
X45443Y-23030D01*
X45496Y-22925D01*
X45569Y-22834D01*
X45658Y-22758D01*
X45760Y-22701D01*
X45872Y-22664D01*
X45988Y-22651D01*
X46104Y-22660D01*
X46216Y-22691D01*
X46321Y-22744D01*
X46413Y-22816D01*
X46490Y-22905D01*
X46548Y-23006D01*
X46585Y-23118D01*
X46599Y-23234D01*
X46600Y-23250D01*
X45400Y-23250D02*
X46600Y-23250D01*
X58600Y-47500D02*
X58588Y-47616D01*
X58554Y-47728D01*
X58499Y-47832D01*
X58425Y-47922D01*
X58335Y-47997D01*
X58232Y-48053D01*
X58120Y-48087D01*
X58004Y-48099D01*
X57888Y-48089D01*
X57776Y-48056D01*
X57672Y-48002D01*
X57581Y-47928D01*
X57505Y-47838D01*
X57449Y-47736D01*
X57414Y-47624D01*
X57401Y-47508D01*
X57410Y-47392D01*
X57443Y-47280D01*
X57496Y-47175D01*
X57569Y-47084D01*
X57658Y-47008D01*
X57760Y-46951D01*
X57872Y-46914D01*
X57988Y-46901D01*
X58104Y-46910D01*
X58216Y-46941D01*
X58321Y-46994D01*
X58413Y-47066D01*
X58490Y-47155D01*
X58548Y-47256D01*
X58585Y-47368D01*
X58599Y-47484D01*
X58600Y-47500D01*
X57400Y-47500D02*
X58600Y-47500D01*
X66600Y-29250D02*
X66588Y-29366D01*
X66554Y-29478D01*
X66499Y-29582D01*
X66425Y-29672D01*
X66335Y-29747D01*
X66232Y-29803D01*
X66120Y-29837D01*
X66004Y-29849D01*
X65888Y-29839D01*
X65776Y-29806D01*
X65672Y-29752D01*
X65581Y-29678D01*
X65505Y-29588D01*
X65449Y-29486D01*
X65414Y-29374D01*
X65401Y-29258D01*
X65410Y-29142D01*
X65443Y-29030D01*
X65496Y-28925D01*
X65569Y-28834D01*
X65658Y-28758D01*
X65760Y-28701D01*
X65872Y-28664D01*
X65988Y-28651D01*
X66104Y-28660D01*
X66216Y-28691D01*
X66321Y-28744D01*
X66413Y-28816D01*
X66490Y-28905D01*
X66548Y-29006D01*
X66585Y-29118D01*
X66599Y-29234D01*
X66600Y-29250D01*
X65400Y-29250D02*
X66600Y-29250D01*
X66600Y-40250D02*
X66588Y-40366D01*
X66554Y-40478D01*
X66499Y-40582D01*
X66425Y-40672D01*
X66335Y-40747D01*
X66232Y-40803D01*
X66120Y-40837D01*
X66004Y-40849D01*
X65888Y-40839D01*
X65776Y-40806D01*
X65672Y-40752D01*
X65581Y-40678D01*
X65505Y-40588D01*
X65449Y-40486D01*
X65414Y-40374D01*
X65401Y-40258D01*
X65410Y-40142D01*
X65443Y-40030D01*
X65496Y-39925D01*
X65569Y-39834D01*
X65658Y-39758D01*
X65760Y-39701D01*
X65872Y-39664D01*
X65988Y-39651D01*
X66104Y-39660D01*
X66216Y-39691D01*
X66321Y-39744D01*
X66413Y-39816D01*
X66490Y-39905D01*
X66548Y-40006D01*
X66585Y-40118D01*
X66599Y-40234D01*
X66600Y-40250D01*
X65400Y-40250D02*
X66600Y-40250D01*
X71500Y-21250D02*
X71488Y-21366D01*
X71454Y-21478D01*
X71399Y-21582D01*
X71325Y-21672D01*
X71235Y-21747D01*
X71132Y-21803D01*
X71020Y-21837D01*
X70904Y-21849D01*
X70788Y-21839D01*
X70676Y-21806D01*
X70572Y-21752D01*
X70481Y-21678D01*
X70405Y-21588D01*
X70349Y-21486D01*
X70314Y-21374D01*
X70301Y-21258D01*
X70310Y-21142D01*
X70343Y-21030D01*
X70396Y-20925D01*
X70469Y-20834D01*
X70558Y-20758D01*
X70660Y-20701D01*
X70772Y-20664D01*
X70888Y-20651D01*
X71004Y-20660D01*
X71116Y-20691D01*
X71221Y-20744D01*
X71313Y-20816D01*
X71390Y-20905D01*
X71448Y-21006D01*
X71485Y-21118D01*
X71499Y-21234D01*
X71500Y-21250D01*
X70300Y-21250D02*
X71500Y-21250D01*
X71500Y-33450D02*
X71488Y-33566D01*
X71454Y-33678D01*
X71399Y-33782D01*
X71325Y-33872D01*
X71235Y-33947D01*
X71132Y-34003D01*
X71020Y-34037D01*
X70904Y-34049D01*
X70788Y-34039D01*
X70676Y-34006D01*
X70572Y-33952D01*
X70481Y-33878D01*
X70405Y-33788D01*
X70349Y-33686D01*
X70314Y-33574D01*
X70301Y-33458D01*
X70310Y-33342D01*
X70343Y-33230D01*
X70396Y-33125D01*
X70469Y-33034D01*
X70558Y-32958D01*
X70660Y-32901D01*
X70772Y-32864D01*
X70888Y-32851D01*
X71004Y-32860D01*
X71116Y-32891D01*
X71221Y-32944D01*
X71313Y-33016D01*
X71390Y-33105D01*
X71448Y-33206D01*
X71485Y-33318D01*
X71499Y-33434D01*
X71500Y-33450D01*
X70300Y-33450D02*
X71500Y-33450D01*
G54D12*
X33897Y-59280D02*
X33897Y-58480D01*
X34088Y-58480D01*
X34202Y-58518D01*
X34278Y-58594D01*
X34317Y-58670D01*
X34355Y-58823D01*
X34355Y-58937D01*
X34317Y-59089D01*
X34278Y-59166D01*
X34202Y-59242D01*
X34088Y-59280D01*
X33897Y-59280D01*
X34697Y-59280D02*
X34697Y-58746D01*
X34697Y-58899D02*
X34736Y-58823D01*
X34774Y-58785D01*
X34850Y-58746D01*
X34926Y-58746D01*
X35192Y-59280D02*
X35192Y-58746D01*
X35192Y-58480D02*
X35154Y-58518D01*
X35192Y-58556D01*
X35231Y-58518D01*
X35192Y-58480D01*
X35192Y-58556D01*
X35688Y-59280D02*
X35612Y-59242D01*
X35573Y-59166D01*
X35573Y-58480D01*
X36107Y-59280D02*
X36031Y-59242D01*
X35992Y-59166D01*
X35992Y-58480D01*
X37021Y-59280D02*
X37021Y-58480D01*
X37288Y-59051D01*
X37555Y-58480D01*
X37555Y-59280D01*
X38278Y-59280D02*
X38278Y-58861D01*
X38240Y-58785D01*
X38164Y-58746D01*
X38012Y-58746D01*
X37935Y-58785D01*
X38278Y-59242D02*
X38202Y-59280D01*
X38012Y-59280D01*
X37935Y-59242D01*
X37897Y-59166D01*
X37897Y-59089D01*
X37935Y-59013D01*
X38012Y-58975D01*
X38202Y-58975D01*
X38278Y-58937D01*
X38659Y-58746D02*
X38659Y-59546D01*
X38659Y-58785D02*
X38736Y-58746D01*
X38888Y-58746D01*
X38964Y-58785D01*
X39002Y-58823D01*
X39040Y-58899D01*
X39040Y-59127D01*
X39002Y-59204D01*
X38964Y-59242D01*
X38888Y-59280D01*
X38736Y-59280D01*
X38659Y-59242D01*
X39383Y-59204D02*
X39422Y-59242D01*
X39383Y-59280D01*
X39345Y-59242D01*
X39383Y-59204D01*
X39383Y-59280D01*
X39383Y-58785D02*
X39422Y-58823D01*
X39383Y-58861D01*
X39345Y-58823D01*
X39383Y-58785D01*
X39383Y-58861D01*
X33257Y-60511D02*
X33507Y-60761D01*
X33507Y-60511D02*
X33257Y-60761D01*
X34050Y-60160D02*
X34126Y-60160D01*
X34202Y-60198D01*
X34240Y-60236D01*
X34278Y-60312D01*
X34317Y-60465D01*
X34317Y-60655D01*
X34278Y-60807D01*
X34240Y-60884D01*
X34202Y-60922D01*
X34126Y-60960D01*
X34050Y-60960D01*
X33974Y-60922D01*
X33936Y-60884D01*
X33897Y-60807D01*
X33859Y-60655D01*
X33859Y-60465D01*
X33897Y-60312D01*
X33936Y-60236D01*
X33974Y-60198D01*
X34050Y-60160D01*
X34659Y-60884D02*
X34698Y-60922D01*
X34659Y-60960D01*
X34621Y-60922D01*
X34659Y-60884D01*
X34659Y-60960D01*
X35193Y-60160D02*
X35269Y-60160D01*
X35345Y-60198D01*
X35383Y-60236D01*
X35421Y-60312D01*
X35460Y-60465D01*
X35460Y-60655D01*
X35421Y-60807D01*
X35383Y-60884D01*
X35345Y-60922D01*
X35269Y-60960D01*
X35193Y-60960D01*
X35117Y-60922D01*
X35079Y-60884D01*
X35040Y-60807D01*
X35002Y-60655D01*
X35002Y-60465D01*
X35040Y-60312D01*
X35079Y-60236D01*
X35117Y-60198D01*
X35193Y-60160D01*
X35764Y-60236D02*
X35802Y-60198D01*
X35879Y-60160D01*
X36069Y-60160D01*
X36145Y-60198D01*
X36183Y-60236D01*
X36222Y-60312D01*
X36222Y-60388D01*
X36183Y-60503D01*
X35726Y-60960D01*
X36222Y-60960D01*
X36945Y-60160D02*
X36564Y-60160D01*
X36526Y-60541D01*
X36564Y-60503D01*
X36641Y-60465D01*
X36831Y-60465D01*
X36907Y-60503D01*
X36945Y-60541D01*
X36984Y-60617D01*
X36984Y-60807D01*
X36945Y-60884D01*
X36907Y-60922D01*
X36831Y-60960D01*
X36641Y-60960D01*
X36564Y-60922D01*
X36526Y-60884D01*
X37288Y-60160D02*
X37288Y-60312D01*
X37593Y-60160D02*
X37593Y-60312D01*
X39118Y-60122D02*
X38432Y-61150D01*
X40147Y-60160D02*
X40223Y-60160D01*
X40299Y-60198D01*
X40337Y-60236D01*
X40375Y-60312D01*
X40414Y-60465D01*
X40414Y-60655D01*
X40375Y-60807D01*
X40337Y-60884D01*
X40299Y-60922D01*
X40223Y-60960D01*
X40147Y-60960D01*
X40071Y-60922D01*
X40033Y-60884D01*
X39994Y-60807D01*
X39956Y-60655D01*
X39956Y-60465D01*
X39994Y-60312D01*
X40033Y-60236D01*
X40071Y-60198D01*
X40147Y-60160D01*
X40756Y-60884D02*
X40795Y-60922D01*
X40756Y-60960D01*
X40718Y-60922D01*
X40756Y-60884D01*
X40756Y-60960D01*
X41480Y-60160D02*
X41328Y-60160D01*
X41252Y-60198D01*
X41214Y-60236D01*
X41137Y-60350D01*
X41099Y-60503D01*
X41099Y-60807D01*
X41137Y-60884D01*
X41176Y-60922D01*
X41252Y-60960D01*
X41404Y-60960D01*
X41480Y-60922D01*
X41518Y-60884D01*
X41557Y-60807D01*
X41557Y-60617D01*
X41518Y-60541D01*
X41480Y-60503D01*
X41404Y-60465D01*
X41252Y-60465D01*
X41176Y-60503D01*
X41137Y-60541D01*
X41099Y-60617D01*
X42242Y-60426D02*
X42242Y-60960D01*
X42052Y-60122D02*
X41861Y-60693D01*
X42357Y-60693D01*
X42661Y-60960D02*
X42661Y-60426D01*
X42661Y-60503D02*
X42700Y-60465D01*
X42776Y-60426D01*
X42890Y-60426D01*
X42966Y-60465D01*
X43004Y-60541D01*
X43004Y-60960D01*
X43004Y-60541D02*
X43042Y-60465D01*
X43119Y-60426D01*
X43233Y-60426D01*
X43309Y-60465D01*
X43347Y-60541D01*
X43347Y-60960D01*
X43728Y-60960D02*
X43728Y-60426D01*
X43728Y-60503D02*
X43767Y-60465D01*
X43843Y-60426D01*
X43957Y-60426D01*
X44033Y-60465D01*
X44071Y-60541D01*
X44071Y-60960D01*
X44071Y-60541D02*
X44109Y-60465D01*
X44186Y-60426D01*
X44300Y-60426D01*
X44376Y-60465D01*
X44414Y-60541D01*
X44414Y-60960D01*
X45634Y-61265D02*
X45596Y-61226D01*
X45520Y-61112D01*
X45482Y-61036D01*
X45444Y-60922D01*
X45405Y-60731D01*
X45405Y-60579D01*
X45444Y-60388D01*
X45482Y-60274D01*
X45520Y-60198D01*
X45596Y-60084D01*
X45634Y-60046D01*
X46358Y-60960D02*
X45900Y-60960D01*
X46129Y-60960D02*
X46129Y-60160D01*
X46053Y-60274D01*
X45977Y-60350D01*
X45900Y-60388D01*
X46739Y-60960D02*
X46891Y-60960D01*
X46967Y-60922D01*
X47005Y-60884D01*
X47081Y-60769D01*
X47120Y-60617D01*
X47120Y-60312D01*
X47081Y-60236D01*
X47043Y-60198D01*
X46967Y-60160D01*
X46815Y-60160D01*
X46739Y-60198D01*
X46700Y-60236D01*
X46662Y-60312D01*
X46662Y-60503D01*
X46700Y-60579D01*
X46739Y-60617D01*
X46815Y-60655D01*
X46967Y-60655D01*
X47043Y-60617D01*
X47081Y-60579D01*
X47120Y-60503D01*
X48072Y-60960D02*
X48072Y-60160D01*
X48415Y-60960D02*
X48415Y-60541D01*
X48377Y-60465D01*
X48301Y-60426D01*
X48187Y-60426D01*
X48111Y-60465D01*
X48072Y-60503D01*
X48911Y-60960D02*
X48835Y-60922D01*
X48796Y-60884D01*
X48758Y-60807D01*
X48758Y-60579D01*
X48796Y-60503D01*
X48835Y-60465D01*
X48911Y-60426D01*
X49025Y-60426D01*
X49101Y-60465D01*
X49139Y-60503D01*
X49177Y-60579D01*
X49177Y-60807D01*
X49139Y-60884D01*
X49101Y-60922D01*
X49025Y-60960D01*
X48911Y-60960D01*
X49635Y-60960D02*
X49559Y-60922D01*
X49520Y-60846D01*
X49520Y-60160D01*
X50244Y-60922D02*
X50168Y-60960D01*
X50016Y-60960D01*
X49939Y-60922D01*
X49901Y-60846D01*
X49901Y-60541D01*
X49939Y-60465D01*
X50016Y-60426D01*
X50168Y-60426D01*
X50244Y-60465D01*
X50282Y-60541D01*
X50282Y-60617D01*
X49901Y-60693D01*
X50587Y-60922D02*
X50664Y-60960D01*
X50816Y-60960D01*
X50892Y-60922D01*
X50930Y-60846D01*
X50930Y-60807D01*
X50892Y-60731D01*
X50816Y-60693D01*
X50702Y-60693D01*
X50625Y-60655D01*
X50587Y-60579D01*
X50587Y-60541D01*
X50625Y-60465D01*
X50702Y-60426D01*
X50816Y-60426D01*
X50892Y-60465D01*
X51197Y-61265D02*
X51235Y-61226D01*
X51312Y-61112D01*
X51350Y-61036D01*
X51388Y-60922D01*
X51426Y-60731D01*
X51426Y-60579D01*
X51388Y-60388D01*
X51350Y-60274D01*
X51312Y-60198D01*
X51235Y-60084D01*
X51197Y-60046D01*
G54D10*
X33507Y-61692D02*
X33503Y-61723D01*
X33494Y-61752D01*
X33480Y-61780D01*
X33460Y-61804D01*
X33436Y-61824D01*
X33409Y-61839D01*
X33379Y-61848D01*
X33348Y-61851D01*
X33318Y-61849D01*
X33288Y-61840D01*
X33260Y-61825D01*
X33236Y-61806D01*
X33215Y-61782D01*
X33200Y-61755D01*
X33191Y-61725D01*
X33188Y-61694D01*
X33190Y-61664D01*
X33199Y-61634D01*
X33213Y-61606D01*
X33232Y-61581D01*
X33256Y-61561D01*
X33283Y-61546D01*
X33313Y-61536D01*
X33344Y-61533D01*
X33374Y-61535D01*
X33404Y-61543D01*
X33432Y-61557D01*
X33457Y-61577D01*
X33477Y-61600D01*
X33493Y-61627D01*
X33503Y-61657D01*
X33506Y-61688D01*
X33507Y-61692D01*
G54D12*
X34050Y-61216D02*
X34126Y-61216D01*
X34202Y-61254D01*
X34240Y-61292D01*
X34278Y-61368D01*
X34317Y-61521D01*
X34317Y-61711D01*
X34278Y-61863D01*
X34240Y-61940D01*
X34202Y-61978D01*
X34126Y-62016D01*
X34050Y-62016D01*
X33974Y-61978D01*
X33936Y-61940D01*
X33897Y-61863D01*
X33859Y-61711D01*
X33859Y-61521D01*
X33897Y-61368D01*
X33936Y-61292D01*
X33974Y-61254D01*
X34050Y-61216D01*
X34659Y-61940D02*
X34698Y-61978D01*
X34659Y-62016D01*
X34621Y-61978D01*
X34659Y-61940D01*
X34659Y-62016D01*
X35193Y-61216D02*
X35269Y-61216D01*
X35345Y-61254D01*
X35383Y-61292D01*
X35421Y-61368D01*
X35460Y-61521D01*
X35460Y-61711D01*
X35421Y-61863D01*
X35383Y-61940D01*
X35345Y-61978D01*
X35269Y-62016D01*
X35193Y-62016D01*
X35117Y-61978D01*
X35079Y-61940D01*
X35040Y-61863D01*
X35002Y-61711D01*
X35002Y-61521D01*
X35040Y-61368D01*
X35079Y-61292D01*
X35117Y-61254D01*
X35193Y-61216D01*
X35726Y-61216D02*
X36222Y-61216D01*
X35955Y-61521D01*
X36069Y-61521D01*
X36145Y-61559D01*
X36183Y-61597D01*
X36222Y-61673D01*
X36222Y-61863D01*
X36183Y-61940D01*
X36145Y-61978D01*
X36069Y-62016D01*
X35841Y-62016D01*
X35764Y-61978D01*
X35726Y-61940D01*
X36526Y-61292D02*
X36564Y-61254D01*
X36641Y-61216D01*
X36831Y-61216D01*
X36907Y-61254D01*
X36945Y-61292D01*
X36984Y-61368D01*
X36984Y-61444D01*
X36945Y-61559D01*
X36488Y-62016D01*
X36984Y-62016D01*
X37288Y-61216D02*
X37288Y-61368D01*
X37593Y-61216D02*
X37593Y-61368D01*
X39118Y-61178D02*
X38432Y-62206D01*
X40147Y-61216D02*
X40223Y-61216D01*
X40299Y-61254D01*
X40337Y-61292D01*
X40375Y-61368D01*
X40414Y-61521D01*
X40414Y-61711D01*
X40375Y-61863D01*
X40337Y-61940D01*
X40299Y-61978D01*
X40223Y-62016D01*
X40147Y-62016D01*
X40071Y-61978D01*
X40033Y-61940D01*
X39994Y-61863D01*
X39956Y-61711D01*
X39956Y-61521D01*
X39994Y-61368D01*
X40033Y-61292D01*
X40071Y-61254D01*
X40147Y-61216D01*
X40756Y-61940D02*
X40795Y-61978D01*
X40756Y-62016D01*
X40718Y-61978D01*
X40756Y-61940D01*
X40756Y-62016D01*
X41252Y-61559D02*
X41176Y-61521D01*
X41137Y-61482D01*
X41099Y-61406D01*
X41099Y-61368D01*
X41137Y-61292D01*
X41176Y-61254D01*
X41252Y-61216D01*
X41404Y-61216D01*
X41480Y-61254D01*
X41518Y-61292D01*
X41557Y-61368D01*
X41557Y-61406D01*
X41518Y-61482D01*
X41480Y-61521D01*
X41404Y-61559D01*
X41252Y-61559D01*
X41176Y-61597D01*
X41137Y-61635D01*
X41099Y-61711D01*
X41099Y-61863D01*
X41137Y-61940D01*
X41176Y-61978D01*
X41252Y-62016D01*
X41404Y-62016D01*
X41480Y-61978D01*
X41518Y-61940D01*
X41557Y-61863D01*
X41557Y-61711D01*
X41518Y-61635D01*
X41480Y-61597D01*
X41404Y-61559D01*
X42319Y-62016D02*
X41861Y-62016D01*
X42090Y-62016D02*
X42090Y-61216D01*
X42014Y-61330D01*
X41938Y-61406D01*
X41861Y-61444D01*
X42661Y-62016D02*
X42661Y-61482D01*
X42661Y-61559D02*
X42700Y-61521D01*
X42776Y-61482D01*
X42890Y-61482D01*
X42966Y-61521D01*
X43004Y-61597D01*
X43004Y-62016D01*
X43004Y-61597D02*
X43042Y-61521D01*
X43119Y-61482D01*
X43233Y-61482D01*
X43309Y-61521D01*
X43347Y-61597D01*
X43347Y-62016D01*
X43728Y-62016D02*
X43728Y-61482D01*
X43728Y-61559D02*
X43767Y-61521D01*
X43843Y-61482D01*
X43957Y-61482D01*
X44033Y-61521D01*
X44071Y-61597D01*
X44071Y-62016D01*
X44071Y-61597D02*
X44109Y-61521D01*
X44186Y-61482D01*
X44300Y-61482D01*
X44376Y-61521D01*
X44414Y-61597D01*
X44414Y-62016D01*
X45634Y-62321D02*
X45596Y-62282D01*
X45520Y-62168D01*
X45482Y-62092D01*
X45444Y-61978D01*
X45405Y-61787D01*
X45405Y-61635D01*
X45444Y-61444D01*
X45482Y-61330D01*
X45520Y-61254D01*
X45596Y-61140D01*
X45634Y-61102D01*
X45862Y-61216D02*
X46396Y-61216D01*
X46053Y-62016D01*
X47081Y-61216D02*
X46700Y-61216D01*
X46662Y-61597D01*
X46700Y-61559D01*
X46777Y-61521D01*
X46967Y-61521D01*
X47043Y-61559D01*
X47081Y-61597D01*
X47120Y-61673D01*
X47120Y-61863D01*
X47081Y-61940D01*
X47043Y-61978D01*
X46967Y-62016D01*
X46777Y-62016D01*
X46700Y-61978D01*
X46662Y-61940D01*
X48072Y-62016D02*
X48072Y-61216D01*
X48415Y-62016D02*
X48415Y-61597D01*
X48377Y-61521D01*
X48301Y-61482D01*
X48187Y-61482D01*
X48111Y-61521D01*
X48072Y-61559D01*
X48911Y-62016D02*
X48835Y-61978D01*
X48796Y-61940D01*
X48758Y-61863D01*
X48758Y-61635D01*
X48796Y-61559D01*
X48835Y-61521D01*
X48911Y-61482D01*
X49025Y-61482D01*
X49101Y-61521D01*
X49139Y-61559D01*
X49177Y-61635D01*
X49177Y-61863D01*
X49139Y-61940D01*
X49101Y-61978D01*
X49025Y-62016D01*
X48911Y-62016D01*
X49635Y-62016D02*
X49559Y-61978D01*
X49520Y-61902D01*
X49520Y-61216D01*
X50244Y-61978D02*
X50168Y-62016D01*
X50016Y-62016D01*
X49939Y-61978D01*
X49901Y-61902D01*
X49901Y-61597D01*
X49939Y-61521D01*
X50016Y-61482D01*
X50168Y-61482D01*
X50244Y-61521D01*
X50282Y-61597D01*
X50282Y-61673D01*
X49901Y-61749D01*
X50587Y-61978D02*
X50664Y-62016D01*
X50816Y-62016D01*
X50892Y-61978D01*
X50930Y-61902D01*
X50930Y-61863D01*
X50892Y-61787D01*
X50816Y-61749D01*
X50702Y-61749D01*
X50625Y-61711D01*
X50587Y-61635D01*
X50587Y-61597D01*
X50625Y-61521D01*
X50702Y-61482D01*
X50816Y-61482D01*
X50892Y-61521D01*
X51197Y-62321D02*
X51235Y-62282D01*
X51312Y-62168D01*
X51350Y-62092D01*
X51388Y-61978D01*
X51426Y-61787D01*
X51426Y-61635D01*
X51388Y-61444D01*
X51350Y-61330D01*
X51312Y-61254D01*
X51235Y-61140D01*
X51197Y-61102D01*
X33307Y-62548D02*
X33307Y-62948D01*
X33507Y-62748D02*
X33107Y-62748D01*
X34050Y-62272D02*
X34126Y-62272D01*
X34202Y-62310D01*
X34240Y-62348D01*
X34278Y-62424D01*
X34317Y-62577D01*
X34317Y-62767D01*
X34278Y-62919D01*
X34240Y-62996D01*
X34202Y-63034D01*
X34126Y-63072D01*
X34050Y-63072D01*
X33974Y-63034D01*
X33936Y-62996D01*
X33897Y-62919D01*
X33859Y-62767D01*
X33859Y-62577D01*
X33897Y-62424D01*
X33936Y-62348D01*
X33974Y-62310D01*
X34050Y-62272D01*
X34659Y-62996D02*
X34698Y-63034D01*
X34659Y-63072D01*
X34621Y-63034D01*
X34659Y-62996D01*
X34659Y-63072D01*
X35193Y-62272D02*
X35269Y-62272D01*
X35345Y-62310D01*
X35383Y-62348D01*
X35421Y-62424D01*
X35460Y-62577D01*
X35460Y-62767D01*
X35421Y-62919D01*
X35383Y-62996D01*
X35345Y-63034D01*
X35269Y-63072D01*
X35193Y-63072D01*
X35117Y-63034D01*
X35079Y-62996D01*
X35040Y-62919D01*
X35002Y-62767D01*
X35002Y-62577D01*
X35040Y-62424D01*
X35079Y-62348D01*
X35117Y-62310D01*
X35193Y-62272D01*
X36145Y-62538D02*
X36145Y-63072D01*
X35955Y-62234D02*
X35764Y-62805D01*
X36260Y-62805D01*
X36717Y-62272D02*
X36793Y-62272D01*
X36869Y-62310D01*
X36907Y-62348D01*
X36945Y-62424D01*
X36984Y-62577D01*
X36984Y-62767D01*
X36945Y-62919D01*
X36907Y-62996D01*
X36869Y-63034D01*
X36793Y-63072D01*
X36717Y-63072D01*
X36641Y-63034D01*
X36603Y-62996D01*
X36564Y-62919D01*
X36526Y-62767D01*
X36526Y-62577D01*
X36564Y-62424D01*
X36603Y-62348D01*
X36641Y-62310D01*
X36717Y-62272D01*
X37288Y-62272D02*
X37288Y-62424D01*
X37593Y-62272D02*
X37593Y-62424D01*
X39118Y-62234D02*
X38432Y-63262D01*
X40414Y-63072D02*
X39956Y-63072D01*
X40185Y-63072D02*
X40185Y-62272D01*
X40109Y-62386D01*
X40033Y-62462D01*
X39956Y-62500D01*
X40756Y-62996D02*
X40795Y-63034D01*
X40756Y-63072D01*
X40718Y-63034D01*
X40756Y-62996D01*
X40756Y-63072D01*
X41290Y-62272D02*
X41366Y-62272D01*
X41442Y-62310D01*
X41480Y-62348D01*
X41518Y-62424D01*
X41557Y-62577D01*
X41557Y-62767D01*
X41518Y-62919D01*
X41480Y-62996D01*
X41442Y-63034D01*
X41366Y-63072D01*
X41290Y-63072D01*
X41214Y-63034D01*
X41176Y-62996D01*
X41137Y-62919D01*
X41099Y-62767D01*
X41099Y-62577D01*
X41137Y-62424D01*
X41176Y-62348D01*
X41214Y-62310D01*
X41290Y-62272D01*
X41861Y-62348D02*
X41899Y-62310D01*
X41976Y-62272D01*
X42166Y-62272D01*
X42242Y-62310D01*
X42280Y-62348D01*
X42319Y-62424D01*
X42319Y-62500D01*
X42280Y-62615D01*
X41823Y-63072D01*
X42319Y-63072D01*
X42661Y-63072D02*
X42661Y-62538D01*
X42661Y-62615D02*
X42700Y-62577D01*
X42776Y-62538D01*
X42890Y-62538D01*
X42966Y-62577D01*
X43004Y-62653D01*
X43004Y-63072D01*
X43004Y-62653D02*
X43042Y-62577D01*
X43119Y-62538D01*
X43233Y-62538D01*
X43309Y-62577D01*
X43347Y-62653D01*
X43347Y-63072D01*
X43728Y-63072D02*
X43728Y-62538D01*
X43728Y-62615D02*
X43767Y-62577D01*
X43843Y-62538D01*
X43957Y-62538D01*
X44033Y-62577D01*
X44071Y-62653D01*
X44071Y-63072D01*
X44071Y-62653D02*
X44109Y-62577D01*
X44186Y-62538D01*
X44300Y-62538D01*
X44376Y-62577D01*
X44414Y-62653D01*
X44414Y-63072D01*
X45634Y-63377D02*
X45596Y-63338D01*
X45520Y-63224D01*
X45482Y-63148D01*
X45444Y-63034D01*
X45405Y-62843D01*
X45405Y-62691D01*
X45444Y-62500D01*
X45482Y-62386D01*
X45520Y-62310D01*
X45596Y-62196D01*
X45634Y-62158D01*
X46358Y-63072D02*
X45900Y-63072D01*
X46129Y-63072D02*
X46129Y-62272D01*
X46053Y-62386D01*
X45977Y-62462D01*
X45900Y-62500D01*
X46662Y-62348D02*
X46700Y-62310D01*
X46777Y-62272D01*
X46967Y-62272D01*
X47043Y-62310D01*
X47081Y-62348D01*
X47120Y-62424D01*
X47120Y-62500D01*
X47081Y-62615D01*
X46624Y-63072D01*
X47120Y-63072D01*
X47424Y-62348D02*
X47462Y-62310D01*
X47539Y-62272D01*
X47729Y-62272D01*
X47805Y-62310D01*
X47843Y-62348D01*
X47882Y-62424D01*
X47882Y-62500D01*
X47843Y-62615D01*
X47386Y-63072D01*
X47882Y-63072D01*
X48834Y-63072D02*
X48834Y-62272D01*
X49177Y-63072D02*
X49177Y-62653D01*
X49139Y-62577D01*
X49063Y-62538D01*
X48949Y-62538D01*
X48873Y-62577D01*
X48834Y-62615D01*
X49673Y-63072D02*
X49597Y-63034D01*
X49558Y-62996D01*
X49520Y-62919D01*
X49520Y-62691D01*
X49558Y-62615D01*
X49597Y-62577D01*
X49673Y-62538D01*
X49787Y-62538D01*
X49863Y-62577D01*
X49901Y-62615D01*
X49939Y-62691D01*
X49939Y-62919D01*
X49901Y-62996D01*
X49863Y-63034D01*
X49787Y-63072D01*
X49673Y-63072D01*
X50397Y-63072D02*
X50321Y-63034D01*
X50282Y-62958D01*
X50282Y-62272D01*
X51006Y-63034D02*
X50930Y-63072D01*
X50778Y-63072D01*
X50701Y-63034D01*
X50663Y-62958D01*
X50663Y-62653D01*
X50701Y-62577D01*
X50778Y-62538D01*
X50930Y-62538D01*
X51006Y-62577D01*
X51044Y-62653D01*
X51044Y-62729D01*
X50663Y-62805D01*
X51349Y-63034D02*
X51426Y-63072D01*
X51578Y-63072D01*
X51654Y-63034D01*
X51692Y-62958D01*
X51692Y-62919D01*
X51654Y-62843D01*
X51578Y-62805D01*
X51464Y-62805D01*
X51387Y-62767D01*
X51349Y-62691D01*
X51349Y-62653D01*
X51387Y-62577D01*
X51464Y-62538D01*
X51578Y-62538D01*
X51654Y-62577D01*
X51959Y-63377D02*
X51997Y-63338D01*
X52074Y-63224D01*
X52112Y-63148D01*
X52150Y-63034D01*
X52188Y-62843D01*
X52188Y-62691D01*
X52150Y-62500D01*
X52112Y-62386D01*
X52074Y-62310D01*
X51997Y-62196D01*
X51959Y-62158D01*
G54D10*
X33507Y-63804D02*
X33497Y-63901D01*
X33469Y-63994D01*
X33423Y-64080D01*
X33361Y-64156D01*
X33286Y-64218D01*
X33200Y-64264D01*
X33107Y-64293D01*
X33010Y-64303D01*
X32914Y-64295D01*
X32820Y-64267D01*
X32734Y-64222D01*
X32658Y-64161D01*
X32595Y-64086D01*
X32548Y-64000D01*
X32518Y-63907D01*
X32508Y-63810D01*
X32516Y-63714D01*
X32543Y-63620D01*
X32587Y-63534D01*
X32648Y-63457D01*
X32722Y-63394D01*
X32807Y-63346D01*
X32900Y-63316D01*
X32997Y-63305D01*
X33093Y-63312D01*
X33187Y-63338D01*
X33274Y-63382D01*
X33351Y-63442D01*
X33415Y-63516D01*
X33463Y-63601D01*
X33494Y-63694D01*
X33506Y-63791D01*
X33507Y-63804D01*
X32507Y-63304D02*
X33507Y-64304D01*
X33507Y-63304D02*
X32507Y-64304D01*
G54D12*
X34050Y-63328D02*
X34126Y-63328D01*
X34202Y-63366D01*
X34240Y-63404D01*
X34278Y-63480D01*
X34317Y-63633D01*
X34317Y-63823D01*
X34278Y-63975D01*
X34240Y-64052D01*
X34202Y-64090D01*
X34126Y-64128D01*
X34050Y-64128D01*
X33974Y-64090D01*
X33936Y-64052D01*
X33897Y-63975D01*
X33859Y-63823D01*
X33859Y-63633D01*
X33897Y-63480D01*
X33936Y-63404D01*
X33974Y-63366D01*
X34050Y-63328D01*
X34659Y-64052D02*
X34698Y-64090D01*
X34659Y-64128D01*
X34621Y-64090D01*
X34659Y-64052D01*
X34659Y-64128D01*
X35460Y-64128D02*
X35002Y-64128D01*
X35231Y-64128D02*
X35231Y-63328D01*
X35155Y-63442D01*
X35079Y-63518D01*
X35002Y-63556D01*
X35955Y-63328D02*
X36031Y-63328D01*
X36107Y-63366D01*
X36145Y-63404D01*
X36183Y-63480D01*
X36222Y-63633D01*
X36222Y-63823D01*
X36183Y-63975D01*
X36145Y-64052D01*
X36107Y-64090D01*
X36031Y-64128D01*
X35955Y-64128D01*
X35879Y-64090D01*
X35841Y-64052D01*
X35802Y-63975D01*
X35764Y-63823D01*
X35764Y-63633D01*
X35802Y-63480D01*
X35841Y-63404D01*
X35879Y-63366D01*
X35955Y-63328D01*
X36717Y-63328D02*
X36793Y-63328D01*
X36869Y-63366D01*
X36907Y-63404D01*
X36945Y-63480D01*
X36984Y-63633D01*
X36984Y-63823D01*
X36945Y-63975D01*
X36907Y-64052D01*
X36869Y-64090D01*
X36793Y-64128D01*
X36717Y-64128D01*
X36641Y-64090D01*
X36603Y-64052D01*
X36564Y-63975D01*
X36526Y-63823D01*
X36526Y-63633D01*
X36564Y-63480D01*
X36603Y-63404D01*
X36641Y-63366D01*
X36717Y-63328D01*
X37288Y-63328D02*
X37288Y-63480D01*
X37593Y-63328D02*
X37593Y-63480D01*
X39118Y-63290D02*
X38432Y-64318D01*
X39956Y-63404D02*
X39994Y-63366D01*
X40071Y-63328D01*
X40261Y-63328D01*
X40337Y-63366D01*
X40375Y-63404D01*
X40414Y-63480D01*
X40414Y-63556D01*
X40375Y-63671D01*
X39918Y-64128D01*
X40414Y-64128D01*
X40756Y-64052D02*
X40795Y-64090D01*
X40756Y-64128D01*
X40718Y-64090D01*
X40756Y-64052D01*
X40756Y-64128D01*
X41518Y-63328D02*
X41137Y-63328D01*
X41099Y-63709D01*
X41137Y-63671D01*
X41214Y-63633D01*
X41404Y-63633D01*
X41480Y-63671D01*
X41518Y-63709D01*
X41557Y-63785D01*
X41557Y-63975D01*
X41518Y-64052D01*
X41480Y-64090D01*
X41404Y-64128D01*
X41214Y-64128D01*
X41137Y-64090D01*
X41099Y-64052D01*
X42242Y-63594D02*
X42242Y-64128D01*
X42052Y-63290D02*
X41861Y-63861D01*
X42357Y-63861D01*
X42661Y-64128D02*
X42661Y-63594D01*
X42661Y-63671D02*
X42700Y-63633D01*
X42776Y-63594D01*
X42890Y-63594D01*
X42966Y-63633D01*
X43004Y-63709D01*
X43004Y-64128D01*
X43004Y-63709D02*
X43042Y-63633D01*
X43119Y-63594D01*
X43233Y-63594D01*
X43309Y-63633D01*
X43347Y-63709D01*
X43347Y-64128D01*
X43728Y-64128D02*
X43728Y-63594D01*
X43728Y-63671D02*
X43767Y-63633D01*
X43843Y-63594D01*
X43957Y-63594D01*
X44033Y-63633D01*
X44071Y-63709D01*
X44071Y-64128D01*
X44071Y-63709D02*
X44109Y-63633D01*
X44186Y-63594D01*
X44300Y-63594D01*
X44376Y-63633D01*
X44414Y-63709D01*
X44414Y-64128D01*
X45634Y-64433D02*
X45596Y-64394D01*
X45520Y-64280D01*
X45482Y-64204D01*
X45444Y-64090D01*
X45405Y-63899D01*
X45405Y-63747D01*
X45444Y-63556D01*
X45482Y-63442D01*
X45520Y-63366D01*
X45596Y-63252D01*
X45634Y-63214D01*
X45900Y-63404D02*
X45938Y-63366D01*
X46015Y-63328D01*
X46205Y-63328D01*
X46281Y-63366D01*
X46319Y-63404D01*
X46358Y-63480D01*
X46358Y-63556D01*
X46319Y-63671D01*
X45862Y-64128D01*
X46358Y-64128D01*
X47310Y-64128D02*
X47310Y-63328D01*
X47653Y-64128D02*
X47653Y-63709D01*
X47615Y-63633D01*
X47539Y-63594D01*
X47425Y-63594D01*
X47349Y-63633D01*
X47310Y-63671D01*
X48149Y-64128D02*
X48073Y-64090D01*
X48034Y-64052D01*
X47996Y-63975D01*
X47996Y-63747D01*
X48034Y-63671D01*
X48073Y-63633D01*
X48149Y-63594D01*
X48263Y-63594D01*
X48339Y-63633D01*
X48377Y-63671D01*
X48415Y-63747D01*
X48415Y-63975D01*
X48377Y-64052D01*
X48339Y-64090D01*
X48263Y-64128D01*
X48149Y-64128D01*
X48873Y-64128D02*
X48797Y-64090D01*
X48758Y-64014D01*
X48758Y-63328D01*
X49482Y-64090D02*
X49406Y-64128D01*
X49254Y-64128D01*
X49177Y-64090D01*
X49139Y-64014D01*
X49139Y-63709D01*
X49177Y-63633D01*
X49254Y-63594D01*
X49406Y-63594D01*
X49482Y-63633D01*
X49520Y-63709D01*
X49520Y-63785D01*
X49139Y-63861D01*
X49825Y-64090D02*
X49902Y-64128D01*
X50054Y-64128D01*
X50130Y-64090D01*
X50168Y-64014D01*
X50168Y-63975D01*
X50130Y-63899D01*
X50054Y-63861D01*
X49940Y-63861D01*
X49863Y-63823D01*
X49825Y-63747D01*
X49825Y-63709D01*
X49863Y-63633D01*
X49940Y-63594D01*
X50054Y-63594D01*
X50130Y-63633D01*
X50435Y-64433D02*
X50473Y-64394D01*
X50550Y-64280D01*
X50588Y-64204D01*
X50626Y-64090D01*
X50664Y-63899D01*
X50664Y-63747D01*
X50626Y-63556D01*
X50588Y-63442D01*
X50550Y-63366D01*
X50473Y-63252D01*
X50435Y-63214D01*
G54D10*
X33507Y-65084D02*
X33495Y-65200D01*
X33461Y-65312D01*
X33406Y-65416D01*
X33332Y-65506D01*
X33242Y-65581D01*
X33139Y-65637D01*
X33027Y-65671D01*
X32911Y-65683D01*
X32795Y-65673D01*
X32683Y-65640D01*
X32579Y-65586D01*
X32488Y-65512D01*
X32412Y-65422D01*
X32356Y-65320D01*
X32321Y-65208D01*
X32308Y-65092D01*
X32317Y-64976D01*
X32350Y-64864D01*
X32403Y-64759D01*
X32476Y-64668D01*
X32565Y-64592D01*
X32667Y-64535D01*
X32779Y-64498D01*
X32895Y-64485D01*
X33011Y-64494D01*
X33123Y-64525D01*
X33228Y-64578D01*
X33320Y-64650D01*
X33397Y-64739D01*
X33455Y-64840D01*
X33492Y-64952D01*
X33506Y-65068D01*
X33507Y-65084D01*
X32307Y-65084D02*
X33507Y-65084D01*
G54D12*
X34050Y-64608D02*
X34126Y-64608D01*
X34202Y-64646D01*
X34240Y-64684D01*
X34278Y-64760D01*
X34317Y-64913D01*
X34317Y-65103D01*
X34278Y-65255D01*
X34240Y-65332D01*
X34202Y-65370D01*
X34126Y-65408D01*
X34050Y-65408D01*
X33974Y-65370D01*
X33936Y-65332D01*
X33897Y-65255D01*
X33859Y-65103D01*
X33859Y-64913D01*
X33897Y-64760D01*
X33936Y-64684D01*
X33974Y-64646D01*
X34050Y-64608D01*
X34659Y-65332D02*
X34698Y-65370D01*
X34659Y-65408D01*
X34621Y-65370D01*
X34659Y-65332D01*
X34659Y-65408D01*
X35460Y-65408D02*
X35002Y-65408D01*
X35231Y-65408D02*
X35231Y-64608D01*
X35155Y-64722D01*
X35079Y-64798D01*
X35002Y-64836D01*
X35764Y-64684D02*
X35802Y-64646D01*
X35879Y-64608D01*
X36069Y-64608D01*
X36145Y-64646D01*
X36183Y-64684D01*
X36222Y-64760D01*
X36222Y-64836D01*
X36183Y-64951D01*
X35726Y-65408D01*
X36222Y-65408D01*
X36717Y-64608D02*
X36793Y-64608D01*
X36869Y-64646D01*
X36907Y-64684D01*
X36945Y-64760D01*
X36984Y-64913D01*
X36984Y-65103D01*
X36945Y-65255D01*
X36907Y-65332D01*
X36869Y-65370D01*
X36793Y-65408D01*
X36717Y-65408D01*
X36641Y-65370D01*
X36603Y-65332D01*
X36564Y-65255D01*
X36526Y-65103D01*
X36526Y-64913D01*
X36564Y-64760D01*
X36603Y-64684D01*
X36641Y-64646D01*
X36717Y-64608D01*
X37288Y-64608D02*
X37288Y-64760D01*
X37593Y-64608D02*
X37593Y-64760D01*
X39118Y-64570D02*
X38432Y-65598D01*
X39918Y-64608D02*
X40414Y-64608D01*
X40147Y-64913D01*
X40261Y-64913D01*
X40337Y-64951D01*
X40375Y-64989D01*
X40414Y-65065D01*
X40414Y-65255D01*
X40375Y-65332D01*
X40337Y-65370D01*
X40261Y-65408D01*
X40033Y-65408D01*
X39956Y-65370D01*
X39918Y-65332D01*
X40756Y-65332D02*
X40795Y-65370D01*
X40756Y-65408D01*
X40718Y-65370D01*
X40756Y-65332D01*
X40756Y-65408D01*
X41290Y-64608D02*
X41366Y-64608D01*
X41442Y-64646D01*
X41480Y-64684D01*
X41518Y-64760D01*
X41557Y-64913D01*
X41557Y-65103D01*
X41518Y-65255D01*
X41480Y-65332D01*
X41442Y-65370D01*
X41366Y-65408D01*
X41290Y-65408D01*
X41214Y-65370D01*
X41176Y-65332D01*
X41137Y-65255D01*
X41099Y-65103D01*
X41099Y-64913D01*
X41137Y-64760D01*
X41176Y-64684D01*
X41214Y-64646D01*
X41290Y-64608D01*
X42280Y-64608D02*
X41899Y-64608D01*
X41861Y-64989D01*
X41899Y-64951D01*
X41976Y-64913D01*
X42166Y-64913D01*
X42242Y-64951D01*
X42280Y-64989D01*
X42319Y-65065D01*
X42319Y-65255D01*
X42280Y-65332D01*
X42242Y-65370D01*
X42166Y-65408D01*
X41976Y-65408D01*
X41899Y-65370D01*
X41861Y-65332D01*
X42661Y-65408D02*
X42661Y-64874D01*
X42661Y-64951D02*
X42700Y-64913D01*
X42776Y-64874D01*
X42890Y-64874D01*
X42966Y-64913D01*
X43004Y-64989D01*
X43004Y-65408D01*
X43004Y-64989D02*
X43042Y-64913D01*
X43119Y-64874D01*
X43233Y-64874D01*
X43309Y-64913D01*
X43347Y-64989D01*
X43347Y-65408D01*
X43728Y-65408D02*
X43728Y-64874D01*
X43728Y-64951D02*
X43767Y-64913D01*
X43843Y-64874D01*
X43957Y-64874D01*
X44033Y-64913D01*
X44071Y-64989D01*
X44071Y-65408D01*
X44071Y-64989D02*
X44109Y-64913D01*
X44186Y-64874D01*
X44300Y-64874D01*
X44376Y-64913D01*
X44414Y-64989D01*
X44414Y-65408D01*
X45634Y-65713D02*
X45596Y-65674D01*
X45520Y-65560D01*
X45482Y-65484D01*
X45444Y-65370D01*
X45405Y-65179D01*
X45405Y-65027D01*
X45444Y-64836D01*
X45482Y-64722D01*
X45520Y-64646D01*
X45596Y-64532D01*
X45634Y-64494D01*
X45977Y-65408D02*
X46129Y-65408D01*
X46205Y-65370D01*
X46243Y-65332D01*
X46319Y-65217D01*
X46358Y-65065D01*
X46358Y-64760D01*
X46319Y-64684D01*
X46281Y-64646D01*
X46205Y-64608D01*
X46053Y-64608D01*
X45977Y-64646D01*
X45938Y-64684D01*
X45900Y-64760D01*
X45900Y-64951D01*
X45938Y-65027D01*
X45977Y-65065D01*
X46053Y-65103D01*
X46205Y-65103D01*
X46281Y-65065D01*
X46319Y-65027D01*
X46358Y-64951D01*
X47310Y-65408D02*
X47310Y-64608D01*
X47653Y-65408D02*
X47653Y-64989D01*
X47615Y-64913D01*
X47539Y-64874D01*
X47425Y-64874D01*
X47349Y-64913D01*
X47310Y-64951D01*
X48149Y-65408D02*
X48073Y-65370D01*
X48034Y-65332D01*
X47996Y-65255D01*
X47996Y-65027D01*
X48034Y-64951D01*
X48073Y-64913D01*
X48149Y-64874D01*
X48263Y-64874D01*
X48339Y-64913D01*
X48377Y-64951D01*
X48415Y-65027D01*
X48415Y-65255D01*
X48377Y-65332D01*
X48339Y-65370D01*
X48263Y-65408D01*
X48149Y-65408D01*
X48873Y-65408D02*
X48797Y-65370D01*
X48758Y-65294D01*
X48758Y-64608D01*
X49482Y-65370D02*
X49406Y-65408D01*
X49254Y-65408D01*
X49177Y-65370D01*
X49139Y-65294D01*
X49139Y-64989D01*
X49177Y-64913D01*
X49254Y-64874D01*
X49406Y-64874D01*
X49482Y-64913D01*
X49520Y-64989D01*
X49520Y-65065D01*
X49139Y-65141D01*
X49825Y-65370D02*
X49902Y-65408D01*
X50054Y-65408D01*
X50130Y-65370D01*
X50168Y-65294D01*
X50168Y-65255D01*
X50130Y-65179D01*
X50054Y-65141D01*
X49940Y-65141D01*
X49863Y-65103D01*
X49825Y-65027D01*
X49825Y-64989D01*
X49863Y-64913D01*
X49940Y-64874D01*
X50054Y-64874D01*
X50130Y-64913D01*
X50435Y-65713D02*
X50473Y-65674D01*
X50550Y-65560D01*
X50588Y-65484D01*
X50626Y-65370D01*
X50664Y-65179D01*
X50664Y-65027D01*
X50626Y-64836D01*
X50588Y-64722D01*
X50550Y-64646D01*
X50473Y-64532D01*
X50435Y-64494D01*
M02*
