G04 (created by PCBNEW-RS274X (2011-05-25)-stable) date Fri 21 Mar 2014 22:02:29 CST*
G01*
G70*
G90*
%MOIN*%
G04 Gerber Fmt 3.4, Leading zero omitted, Abs format*
%FSLAX34Y34*%
G04 APERTURE LIST*
%ADD10C,0.006000*%
%ADD11C,0.012000*%
G04 APERTURE END LIST*
G54D10*
G54D11*
X66786Y-22807D02*
X66824Y-22750D01*
X66824Y-22636D01*
X66786Y-22578D01*
X66748Y-22550D01*
X66671Y-22521D01*
X66443Y-22521D01*
X66367Y-22550D01*
X66329Y-22578D01*
X66290Y-22636D01*
X66290Y-22750D01*
X66329Y-22807D01*
X66824Y-23150D02*
X66786Y-23092D01*
X66748Y-23064D01*
X66671Y-23035D01*
X66443Y-23035D01*
X66367Y-23064D01*
X66329Y-23092D01*
X66290Y-23150D01*
X66290Y-23235D01*
X66329Y-23292D01*
X66367Y-23321D01*
X66443Y-23350D01*
X66671Y-23350D01*
X66748Y-23321D01*
X66786Y-23292D01*
X66824Y-23235D01*
X66824Y-23150D01*
X66290Y-23607D02*
X66824Y-23607D01*
X66367Y-23607D02*
X66329Y-23635D01*
X66290Y-23693D01*
X66290Y-23778D01*
X66329Y-23835D01*
X66405Y-23864D01*
X66824Y-23864D01*
X66290Y-24064D02*
X66290Y-24293D01*
X66024Y-24150D02*
X66710Y-24150D01*
X66786Y-24178D01*
X66824Y-24236D01*
X66824Y-24293D01*
X66824Y-24493D02*
X66290Y-24493D01*
X66443Y-24493D02*
X66367Y-24521D01*
X66329Y-24550D01*
X66290Y-24607D01*
X66290Y-24664D01*
X66824Y-25121D02*
X66405Y-25121D01*
X66329Y-25092D01*
X66290Y-25035D01*
X66290Y-24921D01*
X66329Y-24864D01*
X66786Y-25121D02*
X66824Y-25064D01*
X66824Y-24921D01*
X66786Y-24864D01*
X66710Y-24835D01*
X66633Y-24835D01*
X66557Y-24864D01*
X66519Y-24921D01*
X66519Y-25064D01*
X66481Y-25121D01*
X66786Y-25378D02*
X66824Y-25435D01*
X66824Y-25550D01*
X66786Y-25607D01*
X66710Y-25635D01*
X66671Y-25635D01*
X66595Y-25607D01*
X66557Y-25550D01*
X66557Y-25464D01*
X66519Y-25407D01*
X66443Y-25378D01*
X66405Y-25378D01*
X66329Y-25407D01*
X66290Y-25464D01*
X66290Y-25550D01*
X66329Y-25607D01*
X66290Y-25807D02*
X66290Y-26036D01*
X66024Y-25893D02*
X66710Y-25893D01*
X66786Y-25921D01*
X66824Y-25979D01*
X66824Y-26036D01*
M02*
