M48
;DRILL file {PCBnew (2011-05-25)-stable} date Fri 21 Mar 2014 21:58:06 CST
;FORMAT={-:-/ absolute / inch / decimal}
FMAT,2
INCH,TZ
T1C0.025
T2C0.032
T3C0.040
T4C0.100
T5C0.120
%
G90
G05
M72
T1
X4.875Y-2.450
X5.400Y-2.250
X5.425Y-2.625
X5.440Y-2.325
X5.500Y-4.225
X5.550Y-2.225
X5.625Y-3.025
X5.640Y-2.325
X5.675Y-3.575
X5.700Y-2.200
X5.700Y-2.625
X5.725Y-3.825
X5.775Y-3.775
X5.975Y-2.100
X6.100Y-4.225
X6.150Y-3.775
X6.225Y-3.825
X6.400Y-3.675
T2
X4.825Y-2.525
X4.825Y-2.825
X4.825Y-3.025
X4.825Y-3.125
X4.925Y-3.025
X4.950Y-2.525
X5.050Y-2.525
X5.225Y-2.525
X5.225Y-2.825
X5.325Y-2.525
X5.325Y-2.825
X5.325Y-5.025
X5.425Y-2.525
X5.425Y-2.825
X5.425Y-5.025
X5.525Y-2.525
X5.525Y-2.825
X5.575Y-4.625
X5.575Y-4.725
X5.575Y-4.825
X5.575Y-4.925
X5.575Y-5.025
X5.575Y-5.125
X5.575Y-5.225
X5.800Y-2.850
X5.875Y-4.625
X5.875Y-4.725
X5.875Y-4.825
X5.875Y-4.925
X5.875Y-5.025
X5.875Y-5.125
X5.875Y-5.225
X5.900Y-2.525
X6.075Y-4.925
X6.075Y-5.225
X6.100Y-2.700
X6.100Y-2.850
X6.175Y-4.925
X6.175Y-5.225
X6.200Y-2.525
X6.200Y-2.700
X6.200Y-2.800
X6.275Y-4.925
X6.275Y-5.225
X6.375Y-4.925
X6.375Y-5.225
X6.500Y-5.025
X6.500Y-5.125
X6.850Y-4.775
X6.850Y-4.875
X6.875Y-2.325
X6.875Y-2.525
X6.975Y-2.425
T3
X4.350Y-2.125
X4.425Y-4.675
X4.425Y-4.875
X4.425Y-4.975
X4.425Y-5.175
X4.450Y-2.125
X4.500Y-3.975
X4.500Y-4.175
X4.525Y-4.875
X4.525Y-4.975
X4.525Y-5.175
X4.550Y-2.125
X4.550Y-3.625
X4.625Y-4.675
X4.625Y-4.875
X4.625Y-4.975
X4.625Y-5.175
X4.650Y-2.125
X4.650Y-3.625
X4.700Y-3.975
X4.700Y-4.175
X4.750Y-2.125
X4.850Y-2.125
X4.850Y-3.400
X4.940Y-2.325
X4.950Y-2.125
X5.000Y-3.575
X5.000Y-3.675
X5.040Y-2.325
X5.050Y-2.125
X5.075Y-3.975
X5.075Y-4.175
X5.140Y-2.325
X5.150Y-2.125
X5.150Y-3.575
X5.150Y-3.675
X5.240Y-2.325
X5.250Y-2.125
X5.250Y-3.400
X5.300Y-4.225
X5.325Y-4.625
X5.325Y-4.725
X5.325Y-4.825
X5.325Y-4.925
X5.340Y-2.325
X5.350Y-2.125
X5.350Y-3.575
X5.350Y-3.675
X5.400Y-4.225
X5.425Y-4.625
X5.425Y-4.725
X5.425Y-4.825
X5.425Y-4.925
X5.440Y-2.325
X5.450Y-2.125
X5.500Y-4.225
X5.540Y-2.325
X5.550Y-2.125
X5.575Y-3.575
X5.575Y-3.675
X5.600Y-4.225
X5.640Y-2.325
X5.650Y-2.125
X5.675Y-3.575
X5.675Y-3.675
X5.700Y-4.025
X5.700Y-4.225
X5.750Y-2.125
X5.775Y-3.575
X5.775Y-3.675
X5.800Y-2.325
X5.800Y-4.025
X5.800Y-4.225
X5.850Y-2.125
X5.875Y-3.575
X5.875Y-3.675
X5.900Y-2.325
X5.900Y-4.025
X6.000Y-2.325
X6.000Y-4.025
X6.000Y-4.225
X6.100Y-2.325
X6.100Y-4.025
X6.100Y-4.225
X6.200Y-2.325
X6.200Y-3.575
X6.200Y-3.675
X6.200Y-4.025
X6.200Y-4.225
X6.300Y-2.325
X6.300Y-3.575
X6.300Y-3.675
X6.300Y-4.025
X6.300Y-4.225
X6.400Y-2.325
X6.400Y-3.575
X6.400Y-3.675
X6.400Y-4.025
X6.400Y-4.225
X6.500Y-2.325
X6.500Y-3.575
X6.500Y-3.675
X6.500Y-4.225
X6.850Y-5.000
X6.850Y-5.100
X6.950Y-3.925
X6.950Y-4.025
X6.950Y-4.125
X6.950Y-4.775
X6.950Y-5.000
X6.950Y-5.100
X7.050Y-3.925
X7.050Y-4.025
X7.050Y-4.125
X7.050Y-4.775
X7.050Y-5.000
X7.050Y-5.100
X7.150Y-4.775
X7.150Y-5.000
X7.150Y-5.100
T4
X4.175Y-4.925
X4.875Y-4.925
T5
X4.135Y-2.125
X4.135Y-3.345
X4.600Y-2.325
X5.350Y-5.225
X6.500Y-4.625
X6.600Y-2.925
X6.600Y-4.025
X7.000Y-4.600
X7.000Y-5.275
X7.090Y-2.125
X7.090Y-3.345
T0
M30
